<svg width="157" height="48" viewBox="0 0 157 48" fill="none" xmlns="http://www.w3.org/2000/svg">
<rect x="1" y="0.5" width="155" height="47" rx="5.5" fill="white"/>
<rect x="1" y="0.5" width="155" height="47" rx="5.5" stroke="#E2E8F0"/>
<path fill-rule="evenodd" clip-rule="evenodd" d="M39.27 24.5806C39.2918 22.8841 40.1812 21.3171 41.6265 20.4285C40.7106 19.1204 39.2315 18.3208 37.6354 18.2709C35.9561 18.0946 34.3282 19.2757 33.4725 19.2757C32.6002 19.2757 31.2827 18.2884 29.864 18.3176C27.9973 18.3779 26.2992 19.4134 25.391 21.0454C23.457 24.3938 24.8996 29.3149 26.7522 32.0215C27.6791 33.3469 28.7624 34.8273 30.1799 34.7748C31.5669 34.7173 32.085 33.8903 33.7593 33.8903C35.418 33.8903 35.9041 34.7748 37.3503 34.7414C38.8387 34.7173 39.7764 33.4102 40.6708 32.0723C41.3368 31.1279 41.8492 30.0842 42.1892 28.9798C40.4215 28.2321 39.272 26.5 39.27 24.5806Z" fill="#121A26"/>
<path fill-rule="evenodd" clip-rule="evenodd" d="M36.5395 16.4906C37.3511 15.5164 37.7509 14.2642 37.6541 13C36.4142 13.1302 35.269 13.7228 34.4465 14.6596C33.6343 15.5839 33.2229 16.7932 33.3028 18.021C34.5592 18.0339 35.7522 17.4699 36.5395 16.4906Z" fill="#121A26"/>
<path d="M55.057 17.78H56.479C56.575 17.78 56.695 17.774 56.839 17.762C56.983 17.744 57.136 17.708 57.298 17.654C57.46 17.594 57.619 17.51 57.775 17.402C57.937 17.294 58.081 17.147 58.207 16.961C58.333 16.775 58.435 16.544 58.513 16.268C58.597 15.986 58.639 15.647 58.639 15.251C58.639 14.867 58.6 14.525 58.522 14.225C58.45 13.919 58.327 13.661 58.153 13.451C57.985 13.235 57.766 13.073 57.496 12.965C57.226 12.851 56.893 12.794 56.497 12.794H55.057V17.78ZM54.202 12.074H56.407C57.397 12.074 58.159 12.326 58.693 12.83C59.227 13.334 59.494 14.102 59.494 15.134C59.494 15.674 59.434 16.154 59.314 16.574C59.194 16.988 59.008 17.339 58.756 17.627C58.504 17.909 58.183 18.125 57.793 18.275C57.403 18.425 56.941 18.5 56.407 18.5H54.202V12.074ZM61.1509 16.178C61.1509 16.46 61.1869 16.712 61.2589 16.934C61.3369 17.15 61.4419 17.333 61.5739 17.483C61.7059 17.627 61.8589 17.738 62.0329 17.816C62.2129 17.894 62.4019 17.933 62.5999 17.933C62.7979 17.933 62.9839 17.894 63.1579 17.816C63.3379 17.738 63.4939 17.627 63.6259 17.483C63.7579 17.333 63.8599 17.15 63.9319 16.934C64.0099 16.712 64.0489 16.46 64.0489 16.178C64.0489 15.896 64.0099 15.647 63.9319 15.431C63.8599 15.209 63.7579 15.023 63.6259 14.873C63.4939 14.723 63.3379 14.609 63.1579 14.531C62.9839 14.453 62.7979 14.414 62.5999 14.414C62.4019 14.414 62.2129 14.453 62.0329 14.531C61.8589 14.609 61.7059 14.723 61.5739 14.873C61.4419 15.023 61.3369 15.209 61.2589 15.431C61.1869 15.647 61.1509 15.896 61.1509 16.178ZM60.3409 16.178C60.3409 15.836 60.3889 15.518 60.4849 15.224C60.5809 14.924 60.7249 14.666 60.9169 14.45C61.1089 14.228 61.3459 14.054 61.6279 13.928C61.9099 13.802 62.2339 13.739 62.5999 13.739C62.9719 13.739 63.2959 13.802 63.5719 13.928C63.8539 14.054 64.0909 14.228 64.2829 14.45C64.4749 14.666 64.6189 14.924 64.7149 15.224C64.8109 15.518 64.8589 15.836 64.8589 16.178C64.8589 16.52 64.8109 16.838 64.7149 17.132C64.6189 17.426 64.4749 17.684 64.2829 17.906C64.0909 18.122 63.8539 18.293 63.5719 18.419C63.2959 18.539 62.9719 18.599 62.5999 18.599C62.2339 18.599 61.9099 18.539 61.6279 18.419C61.3459 18.293 61.1089 18.122 60.9169 17.906C60.7249 17.684 60.5809 17.426 60.4849 17.132C60.3889 16.838 60.3409 16.52 60.3409 16.178ZM70.5489 18.5H69.7389L68.7939 14.801H68.7759L67.8399 18.5H67.0119L65.5179 13.847H66.3639L67.4169 17.654H67.4349L68.3709 13.847H69.2079L70.1799 17.654H70.1979L71.2419 13.847H72.0339L70.5489 18.5ZM72.9412 13.847H73.6612V14.585H73.6792C73.9972 14.021 74.5012 13.739 75.1912 13.739C75.4972 13.739 75.7522 13.781 75.9562 13.865C76.1602 13.949 76.3252 14.066 76.4512 14.216C76.5772 14.366 76.6642 14.546 76.7122 14.756C76.7662 14.96 76.7932 15.188 76.7932 15.44V18.5H76.0282V15.35C76.0282 15.062 75.9442 14.834 75.7762 14.666C75.6082 14.498 75.3772 14.414 75.0832 14.414C74.8492 14.414 74.6452 14.45 74.4712 14.522C74.3032 14.594 74.1622 14.696 74.0482 14.828C73.9342 14.96 73.8472 15.116 73.7872 15.296C73.7332 15.47 73.7062 15.662 73.7062 15.872V18.5H72.9412V13.847ZM78.1672 12.074H78.9322V18.5H78.1672V12.074ZM80.8553 16.178C80.8553 16.46 80.8913 16.712 80.9633 16.934C81.0413 17.15 81.1463 17.333 81.2783 17.483C81.4103 17.627 81.5633 17.738 81.7373 17.816C81.9173 17.894 82.1063 17.933 82.3043 17.933C82.5023 17.933 82.6883 17.894 82.8623 17.816C83.0423 17.738 83.1983 17.627 83.3303 17.483C83.4623 17.333 83.5643 17.15 83.6363 16.934C83.7143 16.712 83.7533 16.46 83.7533 16.178C83.7533 15.896 83.7143 15.647 83.6363 15.431C83.5643 15.209 83.4623 15.023 83.3303 14.873C83.1983 14.723 83.0423 14.609 82.8623 14.531C82.6883 14.453 82.5023 14.414 82.3043 14.414C82.1063 14.414 81.9173 14.453 81.7373 14.531C81.5633 14.609 81.4103 14.723 81.2783 14.873C81.1463 15.023 81.0413 15.209 80.9633 15.431C80.8913 15.647 80.8553 15.896 80.8553 16.178ZM80.0453 16.178C80.0453 15.836 80.0933 15.518 80.1893 15.224C80.2853 14.924 80.4293 14.666 80.6213 14.45C80.8133 14.228 81.0503 14.054 81.3323 13.928C81.6143 13.802 81.9383 13.739 82.3043 13.739C82.6763 13.739 83.0003 13.802 83.2763 13.928C83.5583 14.054 83.7953 14.228 83.9873 14.45C84.1793 14.666 84.3233 14.924 84.4193 15.224C84.5153 15.518 84.5633 15.836 84.5633 16.178C84.5633 16.52 84.5153 16.838 84.4193 17.132C84.3233 17.426 84.1793 17.684 83.9873 17.906C83.7953 18.122 83.5583 18.293 83.2763 18.419C83.0003 18.539 82.6763 18.599 82.3043 18.599C81.9383 18.599 81.6143 18.539 81.3323 18.419C81.0503 18.293 80.8133 18.122 80.6213 17.906C80.4293 17.684 80.2853 17.426 80.1893 17.132C80.0933 16.838 80.0453 16.52 80.0453 16.178ZM89.7673 18.482C89.6353 18.56 89.4523 18.599 89.2183 18.599C89.0203 18.599 88.8613 18.545 88.7413 18.437C88.6273 18.323 88.5703 18.14 88.5703 17.888C88.3603 18.14 88.1143 18.323 87.8323 18.437C87.5563 18.545 87.2563 18.599 86.9323 18.599C86.7223 18.599 86.5213 18.575 86.3293 18.527C86.1433 18.479 85.9813 18.404 85.8433 18.302C85.7053 18.2 85.5943 18.068 85.5103 17.906C85.4323 17.738 85.3933 17.537 85.3933 17.303C85.3933 17.039 85.4383 16.823 85.5283 16.655C85.6183 16.487 85.7353 16.352 85.8793 16.25C86.0293 16.142 86.1973 16.061 86.3833 16.007C86.5753 15.953 86.7703 15.908 86.9683 15.872C87.1783 15.83 87.3763 15.8 87.5623 15.782C87.7543 15.758 87.9223 15.728 88.0663 15.692C88.2103 15.65 88.3243 15.593 88.4083 15.521C88.4923 15.443 88.5343 15.332 88.5343 15.188C88.5343 15.02 88.5013 14.885 88.4353 14.783C88.3753 14.681 88.2943 14.603 88.1923 14.549C88.0963 14.495 87.9853 14.459 87.8593 14.441C87.7393 14.423 87.6193 14.414 87.4993 14.414C87.1753 14.414 86.9053 14.477 86.6893 14.603C86.4733 14.723 86.3563 14.954 86.3383 15.296H85.5733C85.5853 15.008 85.6453 14.765 85.7533 14.567C85.8613 14.369 86.0053 14.21 86.1853 14.09C86.3653 13.964 86.5693 13.874 86.7973 13.82C87.0313 13.766 87.2803 13.739 87.5443 13.739C87.7543 13.739 87.9613 13.754 88.1653 13.784C88.3753 13.814 88.5643 13.877 88.7323 13.973C88.9003 14.063 89.0353 14.192 89.1373 14.36C89.2393 14.528 89.2903 14.747 89.2903 15.017V17.411C89.2903 17.591 89.2993 17.723 89.3173 17.807C89.3413 17.891 89.4133 17.933 89.5333 17.933C89.5993 17.933 89.6773 17.918 89.7673 17.888V18.482ZM88.5253 16.097C88.4293 16.169 88.3033 16.223 88.1473 16.259C87.9913 16.289 87.8263 16.316 87.6523 16.34C87.4843 16.358 87.3133 16.382 87.1393 16.412C86.9653 16.436 86.8093 16.478 86.6713 16.538C86.5333 16.598 86.4193 16.685 86.3293 16.799C86.2453 16.907 86.2033 17.057 86.2033 17.249C86.2033 17.375 86.2273 17.483 86.2753 17.573C86.3293 17.657 86.3953 17.726 86.4733 17.78C86.5573 17.834 86.6533 17.873 86.7613 17.897C86.8693 17.921 86.9833 17.933 87.1033 17.933C87.3553 17.933 87.5713 17.9 87.7513 17.834C87.9313 17.762 88.0783 17.675 88.1923 17.573C88.3063 17.465 88.3903 17.351 88.4443 17.231C88.4983 17.105 88.5253 16.988 88.5253 16.88V16.097ZM91.2172 16.214C91.2172 16.43 91.2442 16.643 91.2982 16.853C91.3582 17.057 91.4452 17.24 91.5592 17.402C91.6792 17.564 91.8292 17.693 92.0092 17.789C92.1952 17.885 92.4112 17.933 92.6572 17.933C92.9152 17.933 93.1342 17.882 93.3142 17.78C93.4942 17.678 93.6412 17.546 93.7552 17.384C93.8692 17.216 93.9502 17.027 93.9982 16.817C94.0522 16.607 94.0792 16.394 94.0792 16.178C94.0792 15.95 94.0522 15.731 93.9982 15.521C93.9442 15.305 93.8572 15.116 93.7372 14.954C93.6232 14.792 93.4732 14.663 93.2872 14.567C93.1012 14.465 92.8762 14.414 92.6122 14.414C92.3542 14.414 92.1352 14.465 91.9552 14.567C91.7752 14.669 91.6312 14.804 91.5232 14.972C91.4152 15.14 91.3372 15.332 91.2892 15.548C91.2412 15.764 91.2172 15.986 91.2172 16.214ZM94.8172 18.5H94.0522V17.87H94.0342C93.9082 18.128 93.7102 18.314 93.4402 18.428C93.1702 18.542 92.8732 18.599 92.5492 18.599C92.1892 18.599 91.8742 18.533 91.6042 18.401C91.3402 18.269 91.1182 18.092 90.9382 17.87C90.7642 17.648 90.6322 17.39 90.5422 17.096C90.4522 16.802 90.4072 16.49 90.4072 16.16C90.4072 15.83 90.4492 15.518 90.5332 15.224C90.6232 14.93 90.7552 14.675 90.9292 14.459C91.1092 14.237 91.3312 14.063 91.5952 13.937C91.8652 13.805 92.1772 13.739 92.5312 13.739C92.6512 13.739 92.7802 13.751 92.9182 13.775C93.0562 13.799 93.1942 13.841 93.3322 13.901C93.4702 13.955 93.5992 14.03 93.7192 14.126C93.8452 14.216 93.9502 14.33 94.0342 14.468H94.0522V12.074H94.8172V18.5ZM99.4171 16.178C99.4171 16.46 99.4531 16.712 99.5251 16.934C99.6031 17.15 99.7081 17.333 99.8401 17.483C99.9721 17.627 100.125 17.738 100.299 17.816C100.479 17.894 100.668 17.933 100.866 17.933C101.064 17.933 101.25 17.894 101.424 17.816C101.604 17.738 101.76 17.627 101.892 17.483C102.024 17.333 102.126 17.15 102.198 16.934C102.276 16.712 102.315 16.46 102.315 16.178C102.315 15.896 102.276 15.647 102.198 15.431C102.126 15.209 102.024 15.023 101.892 14.873C101.76 14.723 101.604 14.609 101.424 14.531C101.25 14.453 101.064 14.414 100.866 14.414C100.668 14.414 100.479 14.453 100.299 14.531C100.125 14.609 99.9721 14.723 99.8401 14.873C99.7081 15.023 99.6031 15.209 99.5251 15.431C99.4531 15.647 99.4171 15.896 99.4171 16.178ZM98.6071 16.178C98.6071 15.836 98.6551 15.518 98.7511 15.224C98.8471 14.924 98.9911 14.666 99.1831 14.45C99.3751 14.228 99.6121 14.054 99.8941 13.928C100.176 13.802 100.5 13.739 100.866 13.739C101.238 13.739 101.562 13.802 101.838 13.928C102.12 14.054 102.357 14.228 102.549 14.45C102.741 14.666 102.885 14.924 102.981 15.224C103.077 15.518 103.125 15.836 103.125 16.178C103.125 16.52 103.077 16.838 102.981 17.132C102.885 17.426 102.741 17.684 102.549 17.906C102.357 18.122 102.12 18.293 101.838 18.419C101.562 18.539 101.238 18.599 100.866 18.599C100.5 18.599 100.176 18.539 99.8941 18.419C99.6121 18.293 99.3751 18.122 99.1831 17.906C98.9911 17.684 98.8471 17.426 98.7511 17.132C98.6551 16.838 98.6071 16.52 98.6071 16.178ZM104.207 13.847H104.927V14.585H104.945C105.263 14.021 105.767 13.739 106.457 13.739C106.763 13.739 107.018 13.781 107.222 13.865C107.426 13.949 107.591 14.066 107.717 14.216C107.843 14.366 107.93 14.546 107.978 14.756C108.032 14.96 108.059 15.188 108.059 15.44V18.5H107.294V15.35C107.294 15.062 107.21 14.834 107.042 14.666C106.874 14.498 106.643 14.414 106.349 14.414C106.115 14.414 105.911 14.45 105.737 14.522C105.569 14.594 105.428 14.696 105.314 14.828C105.2 14.96 105.113 15.116 105.053 15.296C104.999 15.47 104.972 15.662 104.972 15.872V18.5H104.207V13.847ZM113.135 13.847H114.062V14.522H113.135V17.411C113.135 17.501 113.141 17.573 113.153 17.627C113.171 17.681 113.201 17.723 113.243 17.753C113.285 17.783 113.342 17.804 113.414 17.816C113.492 17.822 113.591 17.825 113.711 17.825H114.062V18.5H113.477C113.279 18.5 113.108 18.488 112.964 18.464C112.826 18.434 112.712 18.383 112.622 18.311C112.538 18.239 112.475 18.137 112.433 18.005C112.391 17.873 112.37 17.699 112.37 17.483V14.522H111.578V13.847H112.37V12.452H113.135V13.847ZM115.092 12.074H115.857V14.531H115.875C115.935 14.387 116.019 14.267 116.127 14.171C116.235 14.069 116.355 13.988 116.487 13.928C116.625 13.862 116.766 13.814 116.91 13.784C117.06 13.754 117.204 13.739 117.342 13.739C117.648 13.739 117.903 13.781 118.107 13.865C118.311 13.949 118.476 14.066 118.602 14.216C118.728 14.366 118.815 14.546 118.863 14.756C118.917 14.96 118.944 15.188 118.944 15.44V18.5H118.179V15.35C118.179 15.062 118.095 14.834 117.927 14.666C117.759 14.498 117.528 14.414 117.234 14.414C117 14.414 116.796 14.45 116.622 14.522C116.454 14.594 116.313 14.696 116.199 14.828C116.085 14.96 115.998 15.116 115.938 15.296C115.884 15.47 115.857 15.662 115.857 15.872V18.5H115.092V12.074ZM123.504 15.728C123.492 15.548 123.45 15.377 123.378 15.215C123.312 15.053 123.219 14.915 123.099 14.801C122.985 14.681 122.847 14.588 122.685 14.522C122.529 14.45 122.355 14.414 122.163 14.414C121.965 14.414 121.785 14.45 121.623 14.522C121.467 14.588 121.332 14.681 121.218 14.801C121.104 14.921 121.014 15.062 120.948 15.224C120.882 15.38 120.843 15.548 120.831 15.728H123.504ZM124.242 17.024C124.14 17.546 123.915 17.939 123.567 18.203C123.219 18.467 122.781 18.599 122.253 18.599C121.881 18.599 121.557 18.539 121.281 18.419C121.011 18.299 120.783 18.131 120.597 17.915C120.411 17.699 120.27 17.441 120.174 17.141C120.084 16.841 120.033 16.514 120.021 16.16C120.021 15.806 120.075 15.482 120.183 15.188C120.291 14.894 120.441 14.639 120.633 14.423C120.831 14.207 121.062 14.039 121.326 13.919C121.596 13.799 121.89 13.739 122.208 13.739C122.622 13.739 122.964 13.826 123.234 14C123.51 14.168 123.729 14.384 123.891 14.648C124.059 14.912 124.173 15.2 124.233 15.512C124.299 15.824 124.326 16.121 124.314 16.403H120.831C120.825 16.607 120.849 16.802 120.903 16.988C120.957 17.168 121.044 17.33 121.164 17.474C121.284 17.612 121.437 17.723 121.623 17.807C121.809 17.891 122.028 17.933 122.28 17.933C122.604 17.933 122.868 17.858 123.072 17.708C123.282 17.558 123.42 17.33 123.486 17.024H124.242Z" fill="#64748B"/>
<path d="M70.4199 25.9766C72.7177 25.9766 74.2324 27.793 74.2324 30.5987C74.2324 33.4122 72.7266 35.2198 70.4541 35.2198C69.2795 35.2812 68.1731 34.666 67.6055 33.6358H67.5625V38.1202H65.7041V26.0713H67.5029V27.5772H67.5371C68.1299 26.5534 69.2375 25.9385 70.4199 25.9766ZM80.3847 25.9766C82.6826 25.9766 84.1973 27.793 84.1973 30.5987C84.1973 33.4122 82.6914 35.2198 80.4189 35.2198C79.2443 35.2812 78.1379 34.666 77.5703 33.6358H77.5273V38.1202H75.6689V26.0713H77.4677V27.5772H77.5019C78.0947 26.5534 79.2023 25.9385 80.3847 25.9766ZM93.7266 22.5C96.3506 22.5 98.1494 23.9717 98.21 26.1143H96.334C96.2217 24.875 95.1972 24.127 93.7002 24.127C92.2031 24.127 91.1787 24.8838 91.1787 25.9854C91.1787 26.8633 91.833 27.3799 93.4336 27.7754L94.8017 28.1113C97.3496 28.7138 98.4082 29.7373 98.4082 31.5537C98.4082 33.8769 96.5576 35.332 93.6142 35.332C90.8603 35.332 89.001 33.9111 88.8808 31.665L90.7832 31.6651C90.9209 32.8965 92.1172 33.7051 93.7519 33.7051C95.3184 33.7051 96.4453 32.8965 96.4453 31.7861C96.4453 30.8223 95.7656 30.2451 94.1562 29.8496L92.5469 29.4619C90.2666 28.9111 89.208 27.8447 89.208 26.1143C89.208 23.9717 91.0752 22.5 93.7266 22.5ZM109.432 25.96C112.057 25.96 113.727 27.75 113.727 30.5987C113.727 33.4551 112.065 35.2374 109.432 35.2374C106.799 35.2374 105.138 33.4551 105.138 30.5987C105.138 27.7501 106.815 25.96 109.432 25.96ZM124.48 25.96C126.985 25.96 128.561 27.6807 128.561 30.4258V31.0625H122.166V31.1749C122.106 31.8489 122.339 32.5161 122.805 33.0067C123.271 33.4974 123.925 33.7642 124.602 33.7393C125.503 33.8238 126.354 33.3059 126.692 32.4659L128.457 32.4659C128.207 34.1094 126.606 35.2374 124.559 35.2374C121.925 35.2374 120.29 33.4727 120.29 30.6416C120.29 27.8018 121.934 25.96 124.48 25.96ZM102.419 23.9288V26.0713H104.141V27.543H102.419V32.5342C102.419 33.3096 102.764 33.6709 103.521 33.6709C103.725 33.6674 103.929 33.653 104.132 33.6279V35.0908C103.792 35.1544 103.446 35.1832 103.1 35.1768C101.267 35.1768 100.552 34.4883 100.552 32.7324V27.543H99.2354V26.0713H100.552V23.9288H102.419ZM60.0664 22.7071L64.5498 35.1251H62.5107L61.375 31.7686H56.6416L55.5049 35.1251H53.5L57.9834 22.7071H60.0664ZM119.252 25.9766C119.466 25.9759 119.68 25.9991 119.889 26.0459V27.7842C119.618 27.7016 119.336 27.6637 119.054 27.6719C118.507 27.6498 117.979 27.8675 117.606 28.268C117.234 28.6684 117.055 29.2116 117.117 29.7549V35.125H115.259V26.0713H117.031V27.6123H117.074C117.321 26.6203 118.23 25.9376 119.252 25.9766ZM109.432 27.4913C107.926 27.4913 107.031 28.6534 107.031 30.5987C107.031 32.5606 107.926 33.7051 109.432 33.7051C110.938 33.7051 111.833 32.5606 111.833 30.5987C111.833 28.6446 110.938 27.4913 109.432 27.4913ZM69.9297 27.5606C68.5098 27.5606 67.5547 28.7911 67.5547 30.5987C67.5547 32.4229 68.5098 33.6446 69.9297 33.6446C71.375 33.6446 72.3223 32.4483 72.3223 30.5987C72.3223 28.7657 71.375 27.5606 69.9297 27.5606ZM79.8945 27.5606C78.4746 27.5606 77.5195 28.7911 77.5195 30.5987C77.5195 32.4229 78.4746 33.6446 79.8945 33.6446C81.3398 33.6446 82.2871 32.4483 82.2871 30.5987C82.2871 28.7657 81.3398 27.5606 79.8945 27.5606ZM59.0342 24.7725H58.9825L57.1318 30.2198H60.8838L59.0342 24.7725ZM124.48 27.4659C123.869 27.4622 123.282 27.7029 122.849 28.1344C122.416 28.5659 122.173 29.1525 122.175 29.7637H126.701C126.735 29.1581 126.514 28.5658 126.093 28.1296C125.671 27.6934 125.087 27.4528 124.48 27.4659Z" fill="#121A26"/>
</svg>
