<svg width="20" height="20" viewBox="0 0 20 20" fill="none" xmlns="http://www.w3.org/2000/svg">
  <g clip-path="url(#clip0_201_3862)">
    <path fill-rule="evenodd" clip-rule="evenodd" d="M10.1667 16.6756H11.8333V13.8918H17.6666V16.6756H19.3333V18.3423H1V16.6756H2.66666V5.5505C2.66666 5.22119 2.86061 4.92275 3.16155 4.789L9.58074 1.93601C9.79107 1.84255 10.0373 1.93725 10.1307 2.14754C10.1544 2.20081 10.1667 2.25846 10.1667 2.31676V16.6756ZM14.835 5.9C12.9931 5.9 11.5 7.39313 11.5 9.235C11.5 11.0769 12.9931 12.57 14.835 12.57C16.6769 12.57 18.17 11.0769 18.17 9.235C18.17 7.39313 16.6769 5.9 14.835 5.9ZM13.1675 7.73425H14.2792C14.2792 8.3482 13.7814 8.84591 13.1675 8.84591V7.73425ZM14.2792 8.84591C14.2792 8.23196 14.7769 7.73425 15.3908 7.73425H16.5025V8.84591H15.3908V11.0692H14.2792V8.84591ZM4 6.89999H8.99999V8.09999H4V6.89999ZM4 9.89999H8.99999V11.1H4V9.89999Z"  fill="#94A3B8" />
  </g>
  <defs>
    <clipPath id="clip0_201_3862">
      <rect width="20" height="20" fill="white" />
    </clipPath>
  </defs>
</svg>