<svg width="157" height="48" viewBox="0 0 157 48" fill="none" xmlns="http://www.w3.org/2000/svg">
<rect x="1" y="0.5" width="155" height="47" rx="5.5" fill="white"/>
<rect x="1" y="0.5" width="155" height="47" rx="5.5" stroke="#E2E8F0"/>
<path fill-rule="evenodd" clip-rule="evenodd" d="M22.9347 11.5476C22.6437 11.8556 22.4727 12.3326 22.4727 12.9516V35.0496C22.4727 35.6686 22.6437 36.1456 22.9347 36.4536L23.0087 36.5256L35.3877 24.1466V23.8546L23.0087 11.4756L22.9347 11.5476Z" fill="#00D7FE"/>
<mask id="mask0_11740_24766" style="mask-type:alpha" maskUnits="userSpaceOnUse" x="35" y="19" width="11" height="10">
<path d="M39.5117 28.2745L35.3867 24.1465V23.8545L39.5137 19.7275L44.4957 22.5575C45.8917 23.3515 45.8917 24.6495 44.4957 25.4425L39.6067 28.2205L39.5117 28.2745Z" fill="white"/>
</mask>
<g mask="url(#mask0_11740_24766)">
<path fill-rule="evenodd" clip-rule="evenodd" d="M39.5117 28.2745L35.3867 24.1465V23.8545L39.5137 19.7275L44.4957 22.5575C45.8917 23.3515 45.8917 24.6495 44.4957 25.4425L39.6067 28.2205L39.5117 28.2745Z" fill="url(#paint0_linear_11740_24766)"/>
</g>
<mask id="mask1_11740_24766" style="mask-type:alpha" maskUnits="userSpaceOnUse" x="22" y="24" width="18" height="13">
<path d="M39.6066 28.22L35.3866 24L22.9336 36.453C23.3946 36.94 24.1546 37 25.0106 36.514L39.6066 28.22Z" fill="white"/>
</mask>
<g mask="url(#mask1_11740_24766)">
<path fill-rule="evenodd" clip-rule="evenodd" d="M39.6066 28.22L35.3866 24L22.9336 36.453C23.3946 36.94 24.1546 37 25.0106 36.514L39.6066 28.22Z" fill="url(#paint1_linear_11740_24766)"/>
</g>
<mask id="mask2_11740_24766" style="mask-type:alpha" maskUnits="userSpaceOnUse" x="22" y="11" width="18" height="13">
<path d="M39.6066 19.7802L25.0106 11.4862C24.1546 11.0002 23.3946 11.0602 22.9336 11.5472L35.3866 24.0002L39.6066 19.7802Z" fill="white"/>
</mask>
<g mask="url(#mask2_11740_24766)">
<path fill-rule="evenodd" clip-rule="evenodd" d="M39.6066 19.7802L25.0106 11.4862C24.1546 11.0002 23.3946 11.0602 22.9336 11.5472L35.3866 24.0002L39.6066 19.7802Z" fill="url(#paint2_linear_11740_24766)"/>
</g>
<path fill-rule="evenodd" clip-rule="evenodd" d="M117.394 34.953H119.26V22.452H117.394V34.953ZM134.201 26.955L132.062 32.375H131.998L129.778 26.955H127.768L131.097 34.53L129.199 38.744H131.146L136.276 26.955H134.201ZM123.619 33.533C123.007 33.533 122.155 33.228 122.155 32.472C122.155 31.507 123.217 31.137 124.133 31.137C124.954 31.137 125.339 31.314 125.838 31.555C125.693 32.713 124.696 33.533 123.619 33.533ZM123.844 26.682C122.493 26.682 121.094 27.277 120.515 28.596L122.171 29.287C122.525 28.596 123.184 28.37 123.876 28.37C124.841 28.37 125.822 28.949 125.838 29.979V30.107C125.5 29.914 124.777 29.625 123.892 29.625C122.107 29.625 120.289 30.606 120.289 32.439C120.289 34.112 121.753 35.19 123.393 35.19C124.648 35.19 125.339 34.627 125.774 33.967H125.838V34.932H127.639V30.14C127.639 27.92 125.983 26.682 123.844 26.682ZM112.312 28.477H109.658V24.192H112.312C113.707 24.192 114.499 25.347 114.499 26.334C114.499 27.303 113.707 28.477 112.312 28.477ZM112.264 22.452H107.793V34.953H109.658V30.217H112.264C114.332 30.217 116.365 28.719 116.365 26.334C116.365 23.949 114.332 22.452 112.264 22.452ZM87.883 33.535C86.594 33.535 85.515 32.456 85.515 30.974C85.515 29.476 86.594 28.38 87.883 28.38C89.156 28.38 90.154 29.476 90.154 30.974C90.154 32.456 89.156 33.535 87.883 33.535ZM90.025 27.655H89.961C89.542 27.156 88.737 26.705 87.722 26.705C85.595 26.705 83.646 28.573 83.646 30.974C83.646 33.358 85.595 35.211 87.722 35.211C88.737 35.211 89.542 34.76 89.961 34.244H90.025V34.856C90.025 36.484 89.156 37.354 87.754 37.354C86.61 37.354 85.901 36.532 85.611 35.839L83.984 36.516C84.451 37.644 85.692 39.029 87.754 39.029C89.945 39.029 91.798 37.74 91.798 34.599V26.962H90.025V27.655ZM93.087 34.953H94.956V22.451H93.087V34.953ZM97.71 30.829C97.662 29.186 98.983 28.348 99.933 28.348C100.675 28.348 101.303 28.718 101.512 29.25L97.71 30.829ZM103.51 29.411C103.156 28.461 102.076 26.705 99.869 26.705C97.678 26.705 95.858 28.428 95.858 30.958C95.858 33.342 97.662 35.211 100.078 35.211C102.028 35.211 103.156 34.019 103.623 33.326L102.173 32.359C101.69 33.068 101.029 33.535 100.078 33.535C99.128 33.535 98.451 33.1 98.016 32.247L103.703 29.895L103.51 29.411ZM58.202 28.01V29.814H62.519C62.39 30.829 62.052 31.57 61.537 32.086C60.908 32.714 59.925 33.406 58.202 33.406C55.544 33.406 53.465 31.264 53.465 28.606C53.465 25.947 55.544 23.805 58.202 23.805C59.636 23.805 60.683 24.369 61.456 25.094L62.729 23.821C61.649 22.79 60.216 22 58.202 22C54.561 22 51.5 24.965 51.5 28.606C51.5 32.247 54.561 35.211 58.202 35.211C60.167 35.211 61.649 34.567 62.809 33.358C64.001 32.166 64.372 30.491 64.372 29.137C64.372 28.718 64.34 28.332 64.275 28.01H58.202ZM69.281 33.535C67.992 33.535 66.88 32.472 66.88 30.958C66.88 29.427 67.992 28.38 69.281 28.38C70.569 28.38 71.681 29.427 71.681 30.958C71.681 32.472 70.569 33.535 69.281 33.535ZM69.281 26.705C66.928 26.705 65.011 28.493 65.011 30.958C65.011 33.406 66.928 35.211 69.281 35.211C71.633 35.211 73.55 33.406 73.55 30.958C73.55 28.493 71.633 26.705 69.281 26.705ZM78.594 33.535C77.305 33.535 76.193 32.472 76.193 30.958C76.193 29.427 77.305 28.38 78.594 28.38C79.883 28.38 80.994 29.427 80.994 30.958C80.994 32.472 79.883 33.535 78.594 33.535ZM78.594 26.705C76.242 26.705 74.325 28.493 74.325 30.958C74.325 33.406 76.242 35.211 78.594 35.211C80.946 35.211 82.863 33.406 82.863 30.958C82.863 28.493 80.946 26.705 78.594 26.705Z" fill="#121A26"/>
<path d="M56.9712 14.814V17.1562C56.8921 17.2734 56.7661 17.4053 56.5933 17.5518C56.4204 17.6953 56.1816 17.8213 55.877 17.9297C55.5752 18.0352 55.1855 18.0879 54.708 18.0879C54.3184 18.0879 53.9595 18.0205 53.6313 17.8857C53.3062 17.748 53.0234 17.5488 52.7832 17.2881C52.5459 17.0244 52.3613 16.7051 52.2295 16.3301C52.1006 15.9521 52.0361 15.5244 52.0361 15.0469V14.5503C52.0361 14.0728 52.0918 13.6465 52.2031 13.2715C52.3174 12.8965 52.4844 12.5786 52.7041 12.3179C52.9238 12.0542 53.1934 11.855 53.5127 11.7202C53.832 11.5825 54.1982 11.5137 54.6113 11.5137C55.1006 11.5137 55.5093 11.5986 55.8374 11.7686C56.1685 11.9355 56.4263 12.167 56.6108 12.4629C56.7983 12.7588 56.9185 13.0957 56.9712 13.4736H56.123C56.085 13.2422 56.0088 13.0312 55.8945 12.8408C55.7832 12.6504 55.6235 12.498 55.4155 12.3838C55.2075 12.2666 54.9395 12.208 54.6113 12.208C54.3154 12.208 54.0591 12.2622 53.8423 12.3706C53.6255 12.479 53.4468 12.6343 53.3062 12.8364C53.1655 13.0386 53.0601 13.2832 52.9897 13.5703C52.9224 13.8574 52.8887 14.1812 52.8887 14.5415V15.0469C52.8887 15.416 52.9312 15.7456 53.0161 16.0356C53.104 16.3257 53.2285 16.5732 53.3896 16.7783C53.5508 16.9805 53.7427 17.1343 53.9653 17.2397C54.1909 17.3452 54.4399 17.3979 54.7124 17.3979C55.0142 17.3979 55.2588 17.373 55.4463 17.3232C55.6338 17.2705 55.7803 17.209 55.8857 17.1387C55.9912 17.0654 56.0718 16.9966 56.1274 16.9321V15.4995H54.6465V14.814H56.9712ZM62.1724 17.3101V18H58.7842V17.3101H62.1724ZM58.9556 11.6016V18H58.1074V11.6016H58.9556ZM61.7241 14.3525V15.0425H58.7842V14.3525H61.7241ZM62.1284 11.6016V12.2959H58.7842V11.6016H62.1284ZM65.4048 11.6016V18H64.5699V11.6016H65.4048ZM67.4615 11.6016V12.2959H62.5176V11.6016H67.4615ZM70.837 11.6016V18H69.9888V11.6016H70.837ZM74.3419 11.6016V18H73.5069V11.6016H74.3419ZM76.3985 11.6016V12.2959H71.4547V11.6016H76.3985ZM83.7907 14.5986V15.0029C83.7907 15.4834 83.7306 15.9141 83.6105 16.2949C83.4904 16.6758 83.3175 16.9995 83.0919 17.2661C82.8663 17.5327 82.5954 17.7363 82.2789 17.877C81.9655 18.0176 81.6139 18.0879 81.2243 18.0879C80.8463 18.0879 80.4992 18.0176 80.1828 17.877C79.8693 17.7363 79.5968 17.5327 79.3654 17.2661C79.1369 16.9995 78.9596 16.6758 78.8336 16.2949C78.7077 15.9141 78.6447 15.4834 78.6447 15.0029V14.5986C78.6447 14.1182 78.7062 13.689 78.8292 13.311C78.9552 12.9302 79.1325 12.6064 79.361 12.3398C79.5895 12.0703 79.8605 11.8652 80.174 11.7246C80.4904 11.584 80.8375 11.5137 81.2155 11.5137C81.6051 11.5137 81.9567 11.584 82.2702 11.7246C82.5866 11.8652 82.8576 12.0703 83.0831 12.3398C83.3117 12.6064 83.486 12.9302 83.6061 13.311C83.7291 13.689 83.7907 14.1182 83.7907 14.5986ZM82.9513 15.0029V14.5898C82.9513 14.209 82.9118 13.8721 82.8327 13.5791C82.7565 13.2861 82.6437 13.04 82.4943 12.8408C82.3449 12.6416 82.1618 12.4907 81.945 12.3882C81.7311 12.2856 81.4879 12.2344 81.2155 12.2344C80.9518 12.2344 80.713 12.2856 80.4992 12.3882C80.2882 12.4907 80.1066 12.6416 79.9542 12.8408C79.8048 13.04 79.6891 13.2861 79.6071 13.5791C79.525 13.8721 79.484 14.209 79.484 14.5898V15.0029C79.484 15.3867 79.525 15.7266 79.6071 16.0225C79.6891 16.3154 79.8063 16.563 79.9586 16.7651C80.1139 16.9644 80.297 17.1152 80.5079 17.2178C80.7218 17.3203 80.9606 17.3716 81.2243 17.3716C81.4996 17.3716 81.7443 17.3203 81.9581 17.2178C82.172 17.1152 82.3522 16.9644 82.4987 16.7651C82.6481 16.563 82.7609 16.3154 82.8371 16.0225C82.9132 15.7266 82.9513 15.3867 82.9513 15.0029ZM89.7126 11.6016V18H88.86L85.6388 13.0649V18H84.7907V11.6016H85.6388L88.8732 16.5498V11.6016H89.7126Z" fill="#64748B"/>
<defs>
<linearGradient id="paint0_linear_11740_24766" x1="43.5875" y1="24.0008" x2="35.3867" y2="24.0008" gradientUnits="userSpaceOnUse">
<stop stop-color="#FFBC00"/>
<stop offset="1" stop-color="#FFDA03"/>
</linearGradient>
<linearGradient id="paint1_linear_11740_24766" x1="37.3132" y1="27.9708" x2="26.6097" y2="36.7933" gradientUnits="userSpaceOnUse">
<stop stop-color="#E22652"/>
<stop offset="1" stop-color="#FF3A44"/>
</linearGradient>
<linearGradient id="paint2_linear_11740_24766" x1="24.8193" y1="13.0463" x2="31.9555" y2="19.3213" gradientUnits="userSpaceOnUse">
<stop stop-color="#0ED574"/>
<stop offset="1" stop-color="#07F076"/>
</linearGradient>
</defs>
</svg>
