<svg width="56" height="56" viewBox="0 0 56 56" fill="none" xmlns="http://www.w3.org/2000/svg">
<g clip-path="url(#clip0_11740_25393)">
<path d="M54.3992 7.65603C53.5753 6.8308 52.2387 6.82937 51.4149 7.65253L26.0953 32.9053L16.9601 22.9835C16.1707 22.1267 14.8361 22.0711 13.9779 22.8604C13.1203 23.6497 13.0654 24.985 13.8547 25.8426L24.4779 37.3796C24.8669 37.8024 25.4114 38.048 25.9855 38.0599C26.0009 38.0605 26.0158 38.0605 26.0306 38.0605C26.5885 38.0605 27.1252 37.8389 27.5206 37.445L54.395 10.641C55.2209 9.81794 55.2223 8.48127 54.3992 7.65603Z" fill="#22C55E"/>
<path d="M53.8894 25.8894C52.7237 25.8894 51.7789 26.8342 51.7789 28C51.7789 41.1122 41.1122 51.7789 28 51.7789C14.8886 51.7789 4.22111 41.1122 4.22111 28C4.22111 14.8886 14.8886 4.22111 28 4.22111C29.1657 4.22111 30.1106 3.27633 30.1106 2.11061C30.1106 0.944781 29.1657 0 28 0C12.5606 0 0 12.5606 0 28C0 43.4387 12.5606 56 28 56C43.4387 56 56 43.4387 56 28C56 26.8343 55.0552 25.8894 53.8894 25.8894Z" fill="#22C55E"/>
</g>
<defs>
<clipPath id="clip0_11740_25393">
<rect width="56" height="56" fill="white"/>
</clipPath>
</defs>
</svg>
