<svg width="20" height="20" viewBox="0 0 20 20" fill="none" xmlns="http://www.w3.org/2000/svg">
<path d="M19.4999 9.99997C19.4999 15.2467 15.2467 19.4999 9.99997 19.4999C4.75328 19.4999 0.5 15.2467 0.5 9.99997C0.5 4.75328 4.75328 0.5 9.99997 0.5C15.2467 0.5 19.4999 4.75328 19.4999 9.99997Z" fill="white" stroke="#94A3B8"/>
<path d="M11.0593 10.0008L13.5293 7.53082C13.6618 7.38865 13.7339 7.2006 13.7305 7.0063C13.7271 6.812 13.6484 6.62661 13.5109 6.4892C13.3735 6.35179 13.1881 6.27308 12.9938 6.26965C12.7995 6.26622 12.6115 6.33834 12.4693 6.47082L9.99933 8.94082L7.52934 6.47082C7.38716 6.33834 7.19912 6.26622 7.00482 6.26965C6.81052 6.27308 6.62513 6.35179 6.48772 6.4892C6.35031 6.62661 6.27159 6.812 6.26816 7.0063C6.26474 7.2006 6.33686 7.38865 6.46934 7.53082L8.93933 10.0008L6.46934 12.4708C6.32889 12.6114 6.25 12.8021 6.25 13.0008C6.25 13.1996 6.32889 13.3902 6.46934 13.5308C6.60996 13.6713 6.80059 13.7501 6.99934 13.7501C7.19809 13.7501 7.38871 13.6713 7.52934 13.5308L9.99933 11.0608L12.4693 13.5308C12.6099 13.6713 12.8006 13.7501 12.9993 13.7501C13.1981 13.7501 13.3887 13.6713 13.5293 13.5308C13.6698 13.3902 13.7487 13.1996 13.7487 13.0008C13.7487 12.8021 13.6698 12.6114 13.5293 12.4708L11.0593 10.0008Z" fill="#94A3B8"/>
</svg>
