<svg width="64" height="64" viewBox="0 0 64 64" fill="none" xmlns="http://www.w3.org/2000/svg">
<path fill-rule="evenodd" clip-rule="evenodd" d="M25.8375 42.1535C26.8138 43.1298 28.3967 43.1298 29.373 42.1535L46.1447 25.3818C47.121 24.4054 47.121 22.8225 46.1447 21.8462C45.1684 20.8699 43.5855 20.8699 42.6092 21.8462L27.6052 36.8502L21.3888 30.634C20.4125 29.6577 18.8296 29.6577 17.8533 30.634C16.877 31.6103 16.877 33.1932 17.8533 34.1695L25.8375 42.1535Z" fill="#2969FF"/>
<mask id="mask0_8002_2624" style="mask-type:luminance" maskUnits="userSpaceOnUse" x="0" y="0" width="64" height="64">
<path d="M0 7.62939e-06H64V64H0V7.62939e-06Z" fill="white"/>
</mask>
<g mask="url(#mask0_8002_2624)">
<path fill-rule="evenodd" clip-rule="evenodd" d="M0 32C0 49.6731 14.3269 64 32 64C49.6731 64 64 49.6731 64 32C64 14.3269 49.6731 7.62939e-06 32 7.62939e-06C14.3269 7.62939e-06 0 14.3269 0 32ZM32 59C17.0883 59 5 46.9117 5 32C5 17.0883 17.0883 5.00001 32 5.00001C46.9117 5.00001 59 17.0883 59 32C59 46.9117 46.9117 59 32 59Z" fill="#2969FF"/>
</g>
</svg>
