<svg width="24" height="24" viewBox="0 0 24 24" fill="none" xmlns="http://www.w3.org/2000/svg">
<g clip-path="url(#clip0_8183_2115)">
<path d="M23.5202 17.4867L15.112 2.92306C13.7386 0.517184 10.2657 0.517184 8.89725 2.92306L0.484103 17.4867C-0.88927 19.8926 0.820036 22.8814 3.59148 22.8814H20.3832C23.1546 22.8814 24.8936 19.863 23.5202 17.4867Z" fill="white"/>
<path d="M23.5202 17.4867L15.112 2.92306C13.7386 0.517184 10.2657 0.517184 8.89725 2.92306L0.484103 17.4867C-0.88927 19.8926 0.820036 22.8814 3.59148 22.8814H20.3832C23.1546 22.8814 24.8936 19.863 23.5202 17.4867ZM11.9997 19.6505C11.2685 19.6505 10.6609 19.0429 10.6609 18.3118C10.6609 17.5806 11.2685 16.973 11.9997 16.973C12.7308 16.973 13.3385 17.5806 13.3088 18.3463C13.3434 19.0429 12.7012 19.6505 11.9997 19.6505ZM13.2199 10.9953C13.1606 12.0328 13.0964 13.0653 13.0371 14.1027C13.0075 14.4386 13.0075 14.7449 13.0075 15.0759C12.9779 15.6243 12.5481 16.0491 11.9997 16.0491C11.4513 16.0491 11.0265 15.6539 10.9919 15.1056C10.903 13.4901 10.8091 11.9043 10.7202 10.2889C10.6905 9.86403 10.6609 9.43423 10.6263 9.00937C10.6263 8.30787 11.0215 7.72986 11.6638 7.54708C12.306 7.39393 12.9433 7.70022 13.2199 8.30787C13.3138 8.5203 13.3434 8.73272 13.3434 8.97973C13.3138 9.65654 13.2496 10.3284 13.2199 10.9953Z" fill="#FACC15"/>
</g>
</svg>
