<svg width="24" height="24" viewBox="0 0 24 24" fill="none" xmlns="http://www.w3.org/2000/svg">
<g clip-path="url(#clip0_8183_2049)">
<path d="M11.9998 0.857178C9.79595 0.857178 7.64159 1.51069 5.80916 2.73509C3.97672 3.95948 2.54851 5.69976 1.70514 7.73585C0.861762 9.77194 0.641096 12.0124 1.07105 14.1739C1.501 16.3354 2.56225 18.3209 4.12061 19.8792C5.67896 21.4376 7.66443 22.4988 9.82593 22.9288C11.9874 23.3587 14.2279 23.1381 16.264 22.2947C18.3001 21.4513 20.0403 20.0231 21.2647 18.1907C22.4891 16.3582 23.1427 14.2039 23.1427 12C23.1393 9.04581 21.9642 6.21356 19.8752 4.1246C17.7863 2.03565 14.954 0.860581 11.9998 0.857178Z" fill="white"/>
<path d="M11.9998 0.857178C9.79595 0.857178 7.64159 1.51069 5.80916 2.73509C3.97672 3.95948 2.54851 5.69976 1.70514 7.73585C0.861762 9.77194 0.641096 12.0124 1.07105 14.1739C1.501 16.3354 2.56225 18.3209 4.12061 19.8792C5.67896 21.4376 7.66443 22.4988 9.82593 22.9288C11.9874 23.3587 14.2279 23.1381 16.264 22.2947C18.3001 21.4513 20.0404 20.0231 21.2647 18.1907C22.4891 16.3582 23.1427 14.2039 23.1427 12C23.1393 9.04581 21.9642 6.21356 19.8752 4.1246C17.7863 2.03565 14.954 0.860581 11.9998 0.857178ZM16.2427 15.03C16.3245 15.1091 16.3898 15.2037 16.4347 15.3083C16.4797 15.4128 16.5033 15.5253 16.5043 15.6391C16.5053 15.7529 16.4836 15.8658 16.4405 15.9711C16.3974 16.0765 16.3338 16.1722 16.2533 16.2527C16.1728 16.3331 16.0771 16.3968 15.9718 16.4399C15.8664 16.483 15.7535 16.5047 15.6397 16.5037C15.5259 16.5027 15.4135 16.479 15.3089 16.4341C15.2043 16.3892 15.1097 16.3239 15.0307 16.242L11.9998 13.212L8.96894 16.242C8.80728 16.3982 8.59076 16.4846 8.36602 16.4826C8.14128 16.4807 7.9263 16.3905 7.76738 16.2316C7.60846 16.0727 7.51831 15.8577 7.51636 15.633C7.51441 15.4082 7.6008 15.1917 7.75694 15.03L10.7878 12L7.75694 8.96918C7.6008 8.80752 7.51441 8.591 7.51636 8.36626C7.51831 8.14152 7.60846 7.92654 7.76738 7.76762C7.9263 7.6087 8.14128 7.51855 8.36602 7.5166C8.59076 7.51465 8.80728 7.60104 8.96894 7.75718L11.9998 10.788L15.0307 7.75718C15.1097 7.67531 15.2043 7.61001 15.3089 7.56509C15.4135 7.52017 15.5259 7.49652 15.6397 7.49554C15.7535 7.49455 15.8664 7.51623 15.9718 7.55933C16.0771 7.60243 16.1728 7.66607 16.2533 7.74655C16.3338 7.82703 16.3974 7.92274 16.4405 8.02807C16.4836 8.13341 16.5053 8.24628 16.5043 8.36009C16.5033 8.4739 16.4797 8.58638 16.4347 8.69095C16.3898 8.79553 16.3245 8.89011 16.2427 8.96918L13.2118 12L16.2427 15.03Z" fill="#FF4747"/>
</g>
</svg>
