<svg width="20" height="20" viewBox="0 0 20 20" fill="none" xmlns="http://www.w3.org/2000/svg">
<path d="M17.2008 7.30078H9.10078C8.10667 7.30078 7.30078 8.10667 7.30078 9.10078V17.2008C7.30078 18.1949 8.10667 19.0008 9.10078 19.0008H17.2008C18.1949 19.0008 19.0008 18.1949 19.0008 17.2008V9.10078C19.0008 8.10667 18.1949 7.30078 17.2008 7.30078Z" stroke="#94A3B8" stroke-width="1.6" stroke-linecap="round" stroke-linejoin="round"/>
<path d="M3.7 12.7H2.8C2.32261 12.7 1.86477 12.5104 1.52721 12.1728C1.18964 11.8352 1 11.3774 1 10.9V2.8C1 2.32261 1.18964 1.86477 1.52721 1.52721C1.86477 1.18964 2.32261 1 2.8 1H10.9C11.3774 1 11.8352 1.18964 12.1728 1.52721C12.5104 1.86477 12.7 2.32261 12.7 2.8V3.7" stroke="#94A3B8" stroke-width="1.6" stroke-linecap="round" stroke-linejoin="round"/>
</svg>
