<svg width="24" height="24" viewBox="0 0 24 24" fill="#94A3B8" xmlns="http://www.w3.org/2000/svg">
<path fill-rule="evenodd" clip-rule="evenodd" d="M11.1362 20C11.1362 19.5581 11.4944 19.2 11.9362 19.2H20.8725C21.3143 19.2 21.6725 19.5581 21.6725 20C21.6725 20.4418 21.3143 20.8 20.8725 20.8H11.9362C11.4944 20.8 11.1362 20.4418 11.1362 20Z" />
<path fill-rule="evenodd" clip-rule="evenodd" d="M17.1504 4.91279C17.3302 4.83829 17.523 4.79995 17.7176 4.79995C17.9123 4.79995 18.1051 4.83829 18.2849 4.91279C18.4648 4.98728 18.6282 5.09647 18.7658 5.23411C18.9035 5.37176 19.0126 5.53517 19.0871 5.71501C19.1616 5.89485 19.2 6.08761 19.2 6.28227C19.2 6.47694 19.1616 6.66969 19.0871 6.84953C19.0126 7.02937 18.9035 7.19278 18.7658 7.33043L17.6138 8.48242L15.5175 6.3861L16.6695 5.23411C16.8071 5.09647 16.9705 4.98728 17.1504 4.91279ZM14.3861 7.51747L5.92626 15.9773L5.14015 18.8598L8.02258 18.0737L16.4824 9.61379L14.3861 7.51747ZM17.7176 3.19995C17.3129 3.19995 16.9121 3.27968 16.5381 3.43458C16.1641 3.58948 15.8243 3.81652 15.5381 4.10274L4.64467 14.9962C4.54622 15.0946 4.47517 15.2171 4.43854 15.3514L3.22816 19.7895C3.15262 20.0664 3.23128 20.3626 3.43428 20.5656C3.63728 20.7686 3.93349 20.8473 4.21046 20.7718L8.64854 19.5614C8.78285 19.5247 8.90528 19.4537 9.00373 19.3553L19.8972 8.4618C20.1834 8.17558 20.4104 7.83579 20.5653 7.46183C20.7202 7.08786 20.8 6.68705 20.8 6.28227C20.8 5.8775 20.7202 5.47669 20.5653 5.10272C20.4104 4.72875 20.1834 4.38896 19.8972 4.10274C19.611 3.81652 19.2712 3.58948 18.8972 3.43458C18.5232 3.27968 18.1224 3.19995 17.7176 3.19995Z" />
</svg>
