<svg width="24" height="24" viewBox="0 0 24 24" fill="none" xmlns="http://www.w3.org/2000/svg">
    <path
        d="M13 11V9H11L11.025 11H3.5V15H5.5V13H11V15H13V13H18.505L18.5 15H20.5V11H13ZM12 2C11.5055 2 11.0222 2.14662 10.6111 2.42133C10.2 2.69603 9.87952 3.08648 9.6903 3.54329C9.50108 4.00011 9.45157 4.50277 9.54804 4.98773C9.6445 5.47268 9.8826 5.91814 10.2322 6.26777C10.5819 6.6174 11.0273 6.8555 11.5123 6.95196C11.9972 7.04843 12.4999 6.99892 12.9567 6.8097C13.4135 6.62048 13.804 6.30005 14.0787 5.88893C14.3534 5.4778 14.5 4.99445 14.5 4.5C14.5 3.83696 14.2366 3.20107 13.7678 2.73223C13.2989 2.26339 12.663 2 12 2ZM12 5.5C11.8022 5.5 11.6089 5.44135 11.4444 5.33147C11.28 5.22159 11.1518 5.06541 11.0761 4.88268C11.0004 4.69996 10.9806 4.49889 11.0192 4.30491C11.0578 4.11093 11.153 3.93275 11.2929 3.79289C11.4327 3.65304 11.6109 3.5578 11.8049 3.51921C11.9989 3.48063 12.2 3.50043 12.3827 3.57612C12.5654 3.65181 12.7216 3.77998 12.8315 3.94443C12.9414 4.10888 13 4.30222 13 4.5C13 4.76522 12.8946 5.01957 12.7071 5.20711C12.5196 5.39464 12.2652 5.5 12 5.5ZM4.5 17C4.00555 17 3.5222 17.1466 3.11108 17.4213C2.69995 17.696 2.37952 18.0865 2.1903 18.5433C2.00108 19.0001 1.95157 19.5028 2.04804 19.9877C2.1445 20.4727 2.3826 20.9181 2.73223 21.2678C3.08187 21.6174 3.52732 21.8555 4.01228 21.952C4.49723 22.0484 4.99989 21.9989 5.45671 21.8097C5.91352 21.6205 6.30397 21.3 6.57867 20.8889C6.85338 20.4778 7 19.9945 7 19.5C7 19.1717 6.93534 18.8466 6.8097 18.5433C6.68406 18.24 6.49991 17.9644 6.26777 17.7322C6.03562 17.5001 5.76002 17.3159 5.45671 17.1903C5.1534 17.0647 4.82831 17 4.5 17ZM4.5 20.5C4.30222 20.5 4.10888 20.4414 3.94443 20.3315C3.77998 20.2216 3.65181 20.0654 3.57612 19.8827C3.50043 19.7 3.48063 19.4989 3.51922 19.3049C3.5578 19.1109 3.65304 18.9327 3.79289 18.7929C3.93275 18.653 4.11093 18.5578 4.30491 18.5192C4.49889 18.4806 4.69996 18.5004 4.88268 18.5761C5.06541 18.6518 5.22159 18.78 5.33147 18.9444C5.44135 19.1089 5.5 19.3022 5.5 19.5C5.5 19.7652 5.39464 20.0196 5.20711 20.2071C5.01957 20.3946 4.76522 20.5 4.5 20.5ZM12 17C11.5055 17 11.0222 17.1466 10.6111 17.4213C10.2 17.696 9.87952 18.0865 9.6903 18.5433C9.50108 19.0001 9.45157 19.5028 9.54804 19.9877C9.6445 20.4727 9.8826 20.9181 10.2322 21.2678C10.5819 21.6174 11.0273 21.8555 11.5123 21.952C11.9972 22.0484 12.4999 21.9989 12.9567 21.8097C13.4135 21.6205 13.804 21.3 14.0787 20.8889C14.3534 20.4778 14.5 19.9945 14.5 19.5C14.5 18.837 14.2366 18.2011 13.7678 17.7322C13.2989 17.2634 12.663 17 12 17ZM12 20.5C11.8022 20.5 11.6089 20.4414 11.4444 20.3315C11.28 20.2216 11.1518 20.0654 11.0761 19.8827C11.0004 19.7 10.9806 19.4989 11.0192 19.3049C11.0578 19.1109 11.153 18.9327 11.2929 18.7929C11.4327 18.653 11.6109 18.5578 11.8049 18.5192C11.9989 18.4806 12.2 18.5004 12.3827 18.5761C12.5654 18.6518 12.7216 18.78 12.8315 18.9444C12.9414 19.1089 13 19.3022 13 19.5C13 19.7652 12.8946 20.0196 12.7071 20.2071C12.5196 20.3946 12.2652 20.5 12 20.5ZM19.5 17C19.0055 17 18.5222 17.1466 18.1111 17.4213C17.7 17.696 17.3795 18.0865 17.1903 18.5433C17.0011 19.0001 16.9516 19.5028 17.048 19.9877C17.1445 20.4727 17.3826 20.9181 17.7322 21.2678C18.0819 21.6174 18.5273 21.8555 19.0123 21.952C19.4972 22.0484 19.9999 21.9989 20.4567 21.8097C20.9135 21.6205 21.304 21.3 21.5787 20.8889C21.8534 20.4778 22 19.9945 22 19.5C22 18.837 21.7366 18.2011 21.2678 17.7322C20.7989 17.2634 20.163 17 19.5 17ZM19.5 20.5C19.3022 20.5 19.1089 20.4414 18.9444 20.3315C18.78 20.2216 18.6518 20.0654 18.5761 19.8827C18.5004 19.7 18.4806 19.4989 18.5192 19.3049C18.5578 19.1109 18.653 18.9327 18.7929 18.7929C18.9327 18.653 19.1109 18.5578 19.3049 18.5192C19.4989 18.4806 19.7 18.5004 19.8827 18.5761C20.0654 18.6518 20.2216 18.78 20.3315 18.9444C20.4414 19.1089 20.5 19.3022 20.5 19.5C20.5 19.7652 20.3946 20.0196 20.2071 20.2071C20.0196 20.3946 19.7652 20.5 19.5 20.5Z"
        fill="currentColor" />
</svg>