<svg width="24" height="24" viewBox="0 0 24 24" fill="none" xmlns="http://www.w3.org/2000/svg">
<path fill-rule="evenodd" clip-rule="evenodd" d="M4 5.00049C3.73478 5.00049 3.48043 5.10585 3.29289 5.29338C3.10536 5.48092 3 5.73527 3 6.00049C3 6.2657 3.10536 6.52006 3.29289 6.70759C3.48043 6.89513 3.73478 7.00049 4 7.00049H20C20.2652 7.00049 20.5196 6.89513 20.7071 6.70759C20.8946 6.52006 21 6.2657 21 6.00049C21 5.73527 20.8946 5.48092 20.7071 5.29338C20.5196 5.10585 20.2652 5.00049 20 5.00049H4ZM3 12.0005C3 11.7353 3.10536 11.4809 3.29289 11.2934C3.48043 11.1058 3.73478 11.0005 4 11.0005H20C20.2652 11.0005 20.5196 11.1058 20.7071 11.2934C20.8946 11.4809 21 11.7353 21 12.0005C21 12.2657 20.8946 12.5201 20.7071 12.7076C20.5196 12.8951 20.2652 13.0005 20 13.0005H4C3.73478 13.0005 3.48043 12.8951 3.29289 12.7076C3.10536 12.5201 3 12.2657 3 12.0005ZM3 18.0005C3 17.7353 3.10536 17.4809 3.29289 17.2934C3.48043 17.1058 3.73478 17.0005 4 17.0005H20C20.2652 17.0005 20.5196 17.1058 20.7071 17.2934C20.8946 17.4809 21 17.7353 21 18.0005C21 18.2657 20.8946 18.5201 20.7071 18.7076C20.5196 18.8951 20.2652 19.0005 20 19.0005H4C3.73478 19.0005 3.48043 18.8951 3.29289 18.7076C3.10536 18.5201 3 18.2657 3 18.0005Z" fill="#202B3C"/>
</svg>
