<svg width="110" height="27" viewBox="0 0 110 27" fill="none" xmlns="http://www.w3.org/2000/svg">
<path d="M0.0227273 24.5V1.22727H9.20455C10.9697 1.22727 12.4735 1.56439 13.7159 2.23864C14.9583 2.9053 15.9053 3.83333 16.5568 5.02273C17.2159 6.20454 17.5455 7.56818 17.5455 9.11364C17.5455 10.6591 17.2121 12.0227 16.5455 13.2045C15.8788 14.3864 14.9129 15.3068 13.6477 15.9659C12.3902 16.625 10.8674 16.9545 9.07955 16.9545H3.22727V13.0114H8.28409C9.23106 13.0114 10.0114 12.8485 10.625 12.5227C11.2462 12.1894 11.7083 11.7311 12.0114 11.1477C12.322 10.5568 12.4773 9.87879 12.4773 9.11364C12.4773 8.34091 12.322 7.66667 12.0114 7.09091C11.7083 6.50757 11.2462 6.05682 10.625 5.73864C10.0038 5.41288 9.21591 5.25 8.26136 5.25H4.94318V24.5H0.0227273ZM29.5256 16.4091H33.7074L35.8097 19.1136L37.8778 21.5227L41.7756 26.4091H37.1847L34.5028 23.1136L33.1278 21.1591L29.5256 16.4091ZM42.1278 12.8636C42.1278 15.4015 41.6468 17.5606 40.6847 19.3409C39.7301 21.1212 38.4271 22.4811 36.7756 23.4205C35.1316 24.3523 33.2831 24.8182 31.2301 24.8182C29.1619 24.8182 27.3059 24.3485 25.6619 23.4091C24.018 22.4697 22.7188 21.1098 21.7642 19.3295C20.8097 17.5492 20.3324 15.3939 20.3324 12.8636C20.3324 10.3258 20.8097 8.16667 21.7642 6.38636C22.7188 4.60606 24.018 3.25 25.6619 2.31818C27.3059 1.37879 29.1619 0.90909 31.2301 0.90909C33.2831 0.90909 35.1316 1.37879 36.7756 2.31818C38.4271 3.25 39.7301 4.60606 40.6847 6.38636C41.6468 8.16667 42.1278 10.3258 42.1278 12.8636ZM37.1392 12.8636C37.1392 11.2197 36.893 9.83333 36.4006 8.70455C35.9157 7.57576 35.2301 6.7197 34.3438 6.13636C33.4574 5.55303 32.4195 5.26136 31.2301 5.26136C30.0407 5.26136 29.0028 5.55303 28.1165 6.13636C27.2301 6.7197 26.5407 7.57576 26.0483 8.70455C25.5634 9.83333 25.321 11.2197 25.321 12.8636C25.321 14.5076 25.5634 15.8939 26.0483 17.0227C26.5407 18.1515 27.2301 19.0076 28.1165 19.5909C29.0028 20.1742 30.0407 20.4659 31.2301 20.4659C32.4195 20.4659 33.4574 20.1742 34.3438 19.5909C35.2301 19.0076 35.9157 18.1515 36.4006 17.0227C36.893 15.8939 37.1392 14.5076 37.1392 12.8636ZM60.1477 1.22727H65.0682V16.3409C65.0682 18.0379 64.6629 19.5227 63.8523 20.7955C63.0492 22.0682 61.9242 23.0606 60.4773 23.7727C59.0303 24.4773 57.3447 24.8295 55.4205 24.8295C53.4886 24.8295 51.7992 24.4773 50.3523 23.7727C48.9053 23.0606 47.7803 22.0682 46.9773 20.7955C46.1742 19.5227 45.7727 18.0379 45.7727 16.3409V1.22727H50.6932V15.9205C50.6932 16.8068 50.8864 17.5947 51.2727 18.2841C51.6667 18.9735 52.2197 19.5152 52.9318 19.9091C53.6439 20.303 54.4735 20.5 55.4205 20.5C56.375 20.5 57.2045 20.303 57.9091 19.9091C58.6212 19.5152 59.1705 18.9735 59.5568 18.2841C59.9508 17.5947 60.1477 16.8068 60.1477 15.9205V1.22727ZM81.7415 7.92045C81.6506 7.00379 81.2604 6.29167 80.571 5.78409C79.8816 5.27651 78.946 5.02273 77.7642 5.02273C76.9612 5.02273 76.2831 5.13636 75.7301 5.36364C75.1771 5.58333 74.7528 5.89015 74.4574 6.28409C74.1695 6.67803 74.0256 7.125 74.0256 7.625C74.0104 8.04167 74.0975 8.4053 74.2869 8.71591C74.4839 9.02652 74.7528 9.29545 75.0938 9.52273C75.4347 9.74242 75.8286 9.93561 76.2756 10.1023C76.7225 10.2614 77.1998 10.3977 77.7074 10.5114L79.7983 11.0114C80.8134 11.2386 81.7453 11.5417 82.5938 11.9205C83.4422 12.2992 84.1771 12.7652 84.7983 13.3182C85.4195 13.8712 85.9006 14.5227 86.2415 15.2727C86.59 16.0227 86.768 16.8826 86.7756 17.8523C86.768 19.2765 86.4044 20.5114 85.6847 21.5568C84.9725 22.5947 83.9422 23.4015 82.5938 23.9773C81.2528 24.5455 79.6354 24.8295 77.7415 24.8295C75.8627 24.8295 74.2263 24.5417 72.8324 23.9659C71.446 23.3902 70.3627 22.5379 69.5824 21.4091C68.8097 20.2727 68.4044 18.8674 68.3665 17.1932H73.1278C73.1809 17.9735 73.4044 18.625 73.7983 19.1477C74.1998 19.6629 74.7339 20.053 75.4006 20.3182C76.0748 20.5758 76.8362 20.7045 77.6847 20.7045C78.518 20.7045 79.2415 20.5833 79.8551 20.3409C80.4763 20.0985 80.9574 19.7614 81.2983 19.3295C81.6392 18.8977 81.8097 18.4015 81.8097 17.8409C81.8097 17.3182 81.6544 16.8788 81.3438 16.5227C81.0407 16.1667 80.5938 15.8636 80.0028 15.6136C79.4195 15.3636 78.7036 15.1364 77.8551 14.9318L75.321 14.2955C73.3589 13.8182 71.8097 13.072 70.6733 12.0568C69.5369 11.0417 68.9725 9.67424 68.9801 7.95454C68.9725 6.54545 69.3475 5.31439 70.1051 4.26136C70.8703 3.20833 71.9195 2.38636 73.2528 1.79545C74.5862 1.20454 76.1013 0.90909 77.7983 0.90909C79.5256 0.90909 81.0331 1.20454 82.321 1.79545C83.6165 2.38636 84.6241 3.20833 85.3438 4.26136C86.0634 5.31439 86.4347 6.53409 86.4574 7.92045H81.7415ZM98.3352 24.5H90.0852V1.22727H98.4034C100.744 1.22727 102.759 1.69318 104.449 2.625C106.138 3.54924 107.438 4.87879 108.347 6.61364C109.263 8.34848 109.722 10.4242 109.722 12.8409C109.722 15.2652 109.263 17.3485 108.347 19.0909C107.438 20.8333 106.131 22.1705 104.426 23.1023C102.729 24.0341 100.699 24.5 98.3352 24.5ZM95.0057 20.2841H98.1307C99.5852 20.2841 100.809 20.0265 101.801 19.5114C102.801 18.9886 103.551 18.1818 104.051 17.0909C104.559 15.9924 104.812 14.5758 104.812 12.8409C104.812 11.1212 104.559 9.71591 104.051 8.625C103.551 7.53409 102.805 6.73106 101.812 6.21591C100.82 5.70076 99.5966 5.44318 98.142 5.44318H95.0057V20.2841Z" fill="#121A26"/>
</svg>
