<svg width="24" height="24" viewBox="0 0 24 24" fill="none" xmlns="http://www.w3.org/2000/svg">
<path d="M10.2818 5.65095C10.845 5.51912 11.4216 5.45323 12 5.45459C17.7273 5.45459 21 12 21 12C20.5033 12.9292 19.911 13.8039 19.2327 14.61M13.7345 13.7346C13.5098 13.9757 13.2389 14.1692 12.9378 14.3033C12.6367 14.4375 12.3116 14.5096 11.9821 14.5154C11.6525 14.5212 11.3251 14.4606 11.0195 14.3372C10.7139 14.2137 10.4362 14.03 10.2031 13.7969C9.97007 13.5638 9.78632 13.2862 9.66287 12.9805C9.53942 12.6749 9.47879 12.3475 9.48461 12.018C9.49042 11.6884 9.56256 11.3634 9.69672 11.0623C9.83087 10.7612 10.0243 10.4902 10.2655 10.2655M4 4L20 20M16.86 16.86C15.4614 17.9261 13.7584 18.5167 12 18.5455C6.27273 18.5455 3 12 3 12C4.01773 10.1034 5.42929 8.44636 7.14 7.14004L16.86 16.86Z" stroke="#94A3B8" stroke-width="1.6" stroke-linecap="round" stroke-linejoin="round"/>
</svg>
