<svg width="24" height="24" viewBox="0 0 24 24" fill="none" xmlns="http://www.w3.org/2000/svg">
<path d="M5.85 3H11.55C11.802 3 12.0436 3.10009 12.2218 3.27825C12.3999 3.45641 12.5 3.69804 12.5 3.95C12.5 4.20196 12.3999 4.44359 12.2218 4.62175C12.0436 4.79991 11.802 4.9 11.55 4.9H5.85C5.59804 4.9 5.35641 5.00009 5.17825 5.17825C5.00009 5.35641 4.9 5.59804 4.9 5.85V19.15C4.9 19.402 5.00009 19.6436 5.17825 19.8218C5.35641 19.9999 5.59804 20.1 5.85 20.1H11.55C11.802 20.1 12.0436 20.2001 12.2218 20.3782C12.3999 20.5564 12.5 20.798 12.5 21.05C12.5 21.302 12.3999 21.5436 12.2218 21.7218C12.0436 21.8999 11.802 22 11.55 22H5.85C5.09413 22 4.36922 21.6997 3.83475 21.1653C3.30027 20.6308 3 19.9059 3 19.15V5.85C3 5.09413 3.30027 4.36922 3.83475 3.83475C4.36922 3.30027 5.09413 3 5.85 3Z" fill="#94A3B8"/>
<path d="M16.5786 15.6283C16.4878 15.7159 16.4154 15.8208 16.3657 15.9367C16.3159 16.0526 16.2897 16.1772 16.2886 16.3034C16.2875 16.4295 16.3115 16.5546 16.3593 16.6714C16.407 16.7881 16.4776 16.8942 16.5668 16.9834C16.656 17.0726 16.762 17.1431 16.8788 17.1909C16.9955 17.2387 17.1206 17.2627 17.2468 17.2616C17.3729 17.2605 17.4976 17.2343 17.6135 17.1845C17.7294 17.1347 17.8342 17.0623 17.9219 16.9716L21.7219 13.1716C21.9 12.9935 22 12.7519 22 12.5C22 12.248 21.9 12.0065 21.7219 11.8283L17.9219 8.02831C17.8342 7.93757 17.7294 7.8652 17.6135 7.81541C17.4976 7.76562 17.3729 7.73941 17.2468 7.73832C17.1206 7.73722 16.9955 7.76126 16.8788 7.80902C16.762 7.85679 16.656 7.92733 16.5668 8.01653C16.4776 8.10573 16.407 8.2118 16.3593 8.32855C16.3115 8.4453 16.2875 8.5704 16.2886 8.69654C16.2897 8.82268 16.3159 8.94734 16.3657 9.06324C16.4154 9.17914 16.4878 9.28397 16.5786 9.3716L18.7569 11.55H7.7502C7.49825 11.55 7.25661 11.65 7.07845 11.8282C6.90029 12.0064 6.8002 12.248 6.8002 12.5C6.8002 12.7519 6.90029 12.9935 7.07845 13.1717C7.25661 13.3499 7.49825 13.45 7.7502 13.45H18.7569L16.5786 15.6283Z" fill="#94A3B8"/>
</svg>
