<svg width="24" height="24" viewBox="0 0 24 24" fill="none" xmlns="http://www.w3.org/2000/svg">
<path d="M15.4473 14.6177L15.1578 14.9619L15.4695 15.2861L19.7536 19.7417C19.9245 19.9195 19.919 20.2041 19.7411 20.3752L19.741 20.3753C19.6572 20.456 19.5481 20.5 19.4309 20.5C19.307 20.5 19.1944 20.4522 19.1081 20.3628C19.108 20.3627 19.108 20.3626 19.1079 20.3625L14.7916 15.8733L14.4944 15.5643L14.1436 15.8108C13.0023 16.6129 11.6691 17.035 10.2675 17.035C6.5364 17.035 3.5 13.9986 3.5 10.2675C3.5 6.5364 6.5364 3.5 10.2675 3.5C13.9986 3.5 17.035 6.5364 17.035 10.2675C17.035 11.8645 16.4733 13.3981 15.4473 14.6177ZM16.1391 10.2675C16.1391 7.02937 13.5056 4.39587 10.2675 4.39587C7.02937 4.39587 4.39587 7.02937 4.39587 10.2675C4.39587 13.5056 7.02937 16.1391 10.2675 16.1391C13.5056 16.1391 16.1391 13.5056 16.1391 10.2675Z" fill="#94A3B8" stroke="#94A3B8"/>
</svg>
