<svg width="17" height="18" viewBox="0 0 17 18" fill="none" xmlns="http://www.w3.org/2000/svg">
  <path fill-rule="evenodd" clip-rule="evenodd" d="M5.3636 14.0908C6.16724 14.0908 6.81815 14.7417 6.81815 15.5454C6.81815 16.349 6.16724 16.9999 5.3636 16.9999C4.55997 16.9999 3.90906 16.349 3.90906 15.5454C3.90906 14.7417 4.55997 14.0908 5.3636 14.0908V14.0908Z" stroke="#94A3B8" stroke-linecap="round" stroke-linejoin="round" />
  <path fill-rule="evenodd" clip-rule="evenodd" d="M14.0909 14.0908C14.8945 14.0908 15.5454 14.7417 15.5454 15.5454C15.5454 16.349 14.8945 16.9999 14.0909 16.9999C13.2873 16.9999 12.6364 16.349 12.6364 15.5454C12.6364 14.7417 13.2873 14.0908 14.0909 14.0908V14.0908Z" stroke="#94A3B8" stroke-linecap="round" stroke-linejoin="round" />
  <path d="M3.66691 4.63636H16.2727L14.8182 11.9091H4.63636L3.18182 1H1" stroke="#94A3B8" stroke-linecap="round" stroke-linejoin="round" />
</svg>