<svg width="141" height="170" viewBox="0 0 141 170" fill="none" xmlns="http://www.w3.org/2000/svg">
    <path
        d="M10.0012 71.9994C10.0012 38.7839 36.9313 12 70.0006 12C103.07 12 130 38.7641 130 71.9994C130 86.0987 125.134 99.0645 116.987 109.303C105.746 123.481 88.5841 132 69.9994 132C51.4146 132 34.2309 123.428 23.003 109.303C14.8558 99.0657 10 86.0999 10 71.9994H10.0012Z"
        fill="#E4E9F4" />
    <path
        d="M16.9649 119.452C17.619 118.009 16.9587 116.301 15.5156 115.647C14.0725 114.993 12.3729 115.633 11.7189 117.077C11.0648 118.52 11.6966 120.239 13.1397 120.892C14.5828 121.546 16.3109 120.894 16.9649 119.451V119.452Z"
        fill="#EAEEF9" />
    <path
        d="M21.2056 125.097C21.6218 124.179 21.2019 123.091 20.2839 122.675C19.366 122.259 18.2834 122.666 17.8672 123.585C17.451 124.503 17.8535 125.598 18.7715 126.015C19.6894 126.431 20.7894 126.016 21.2056 125.098V125.097Z"
        fill="#EAEEF9" />
    <path
        d="M123.058 19.65C124.09 18.4484 123.936 16.6225 122.735 15.5907C121.533 14.5588 119.722 14.6963 118.69 15.8979C117.658 17.0994 117.782 18.9266 118.984 19.9597C120.185 20.9915 122.027 20.8516 123.059 19.65H123.058Z"
        fill="#EAEEF9" />
    <path
        d="M125.544 26.2586C126.201 25.4931 126.103 24.3324 125.339 23.6746C124.573 23.0181 123.421 23.106 122.765 23.8703C122.108 24.6359 122.186 25.7978 122.952 26.4556C123.717 27.1121 124.889 27.0229 125.546 26.2586H125.544Z"
        fill="#EAEEF9" />
    <path
        d="M20.5854 25.3414C21.6172 24.1398 21.4636 22.3139 20.2621 21.2821C19.0605 20.2502 17.2495 20.3877 16.2176 21.5893C15.1857 22.7908 15.3096 24.618 16.5112 25.6511C17.7127 26.683 19.5547 26.543 20.5866 25.3414H20.5854Z"
        fill="#EAEEF9" />
    <g filter="url(#filter0_d_8283_20121)">
        <path
            d="M116.684 41.7185V123.027C116.684 127.986 112.672 131.999 107.712 131.999H33.9214C28.9615 131.999 24.9492 127.986 24.9492 123.027V20.9722C24.9492 16.0123 28.9615 12 33.9214 12H85.1096C85.5779 12 86.0375 12.0372 86.4871 12.1028C88.2213 12.3741 89.8528 13.1533 91.1646 14.3623L113.776 35.1086C115.127 36.3461 116.054 37.9589 116.448 39.7117C116.608 40.3683 116.683 41.0335 116.683 41.7185H116.684Z"
            fill="url(#paint0_linear_8283_20121)" />
    </g>
    <path
        d="M116.45 39.7144H90.8313C88.4331 39.7144 86.4883 37.7696 86.4883 35.3714V12.1055C88.2225 12.3768 89.8539 13.1559 91.1657 14.3649L113.778 35.1113C115.128 36.3488 116.056 37.9616 116.45 39.7144Z"
        fill="url(#paint1_linear_8283_20121)" />
    <path
        d="M73.1152 21.7852H41.5374C41.3506 21.7852 41.1992 21.9366 41.1992 22.1233V25.3973C41.1992 25.5841 41.3506 25.7355 41.5374 25.7355H73.1152C73.302 25.7355 73.4534 25.5841 73.4534 25.3973V22.1233C73.4534 21.9366 73.302 21.7852 73.1152 21.7852Z"
        fill="#E0E4ED" />
    <path
        d="M60.1989 31.1484H41.5374C41.3506 31.1484 41.1992 31.2998 41.1992 31.4866V34.7606C41.1992 34.9474 41.3506 35.0988 41.5374 35.0988H60.1989C60.3857 35.0988 60.5371 34.9474 60.5371 34.7606V31.4866C60.5371 31.2998 60.3857 31.1484 60.1989 31.1484Z"
        fill="#E0E4ED" />
    <path
        d="M80.0608 114.27H41.8793C41.5037 114.27 41.1992 114.574 41.1992 114.95V117.589C41.1992 117.965 41.5037 118.269 41.8793 118.269H80.0608C80.4364 118.269 80.7409 117.965 80.7409 117.589V114.95C80.7409 114.574 80.4364 114.27 80.0608 114.27Z"
        fill="#E0E4ED" />
    <path
        d="M88.4719 89.107C79.5989 97.9726 65.2196 97.9726 56.354 89.107C47.481 80.2339 47.481 65.8621 56.354 56.9891C65.2196 48.1234 79.5989 48.1234 88.4719 56.9891C97.3376 65.8621 97.3376 80.2339 88.4719 89.107Z"
        fill="url(#paint2_linear_8283_20121)" />
    <path
        d="M51.662 52.2948C40.2012 63.7556 40.2012 82.3341 51.662 93.7949C63.1228 105.256 81.7013 105.256 93.1621 93.7949C104.623 82.3341 104.623 63.7556 93.1621 52.2948C81.7013 40.834 63.1228 40.834 51.662 52.2948ZM87.4007 88.0336C79.121 96.3133 65.7018 96.3133 57.4234 88.0336C49.1436 79.7538 49.1436 66.3359 57.4234 58.0562C65.7031 49.7765 79.121 49.7765 87.4007 58.0562C95.6804 66.3359 95.6804 79.7551 87.4007 88.0336Z"
        fill="url(#paint3_linear_8283_20121)" />
    <path
        d="M102.166 97.245L96.6169 102.794L90.1953 96.3816C92.3321 94.7687 94.2546 92.819 95.7548 90.832L102.168 97.245H102.166Z"
        fill="url(#paint4_linear_8283_20121)" />
    <path
        d="M106.324 96.3049L118.745 108.726C121.687 111.668 121.687 116.439 118.745 119.381C115.803 122.323 111.031 122.323 108.089 119.381L95.6682 106.961C94.7825 106.075 94.7825 104.638 95.6682 103.752L103.115 96.3049C104.001 95.4192 105.438 95.4192 106.324 96.3049Z"
        fill="url(#paint5_linear_8283_20121)" />
    <path
        d="M75.073 78.1496C74.5552 78.1496 74.1353 77.7297 74.1353 77.2119C74.1353 75.1333 70.9926 75.1333 70.9926 77.2119C70.9926 77.7297 70.5727 78.1496 70.0549 78.1496C69.5371 78.1496 69.1172 77.7297 69.1172 77.2119C69.1172 72.6509 76.0107 72.6558 76.0107 77.2119C76.0107 77.7297 75.5908 78.1496 75.073 78.1496Z"
        fill="#AAB2C5" />
    <path
        d="M83.0591 70.184H79.1682C78.6504 70.184 78.2305 69.7641 78.2305 69.2463C78.2305 68.7285 78.6492 68.3086 79.1682 68.3086H83.0591C83.5768 68.3086 83.9968 68.7285 83.9968 69.2463C83.9968 69.7641 83.5781 70.184 83.0591 70.184Z"
        fill="#AAB2C5" />
    <path
        d="M65.9563 70.184H62.0666C61.5488 70.184 61.1289 69.7641 61.1289 69.2463C61.1289 68.7285 61.5488 68.3086 62.0666 68.3086H65.9563C66.474 68.3086 66.894 68.7285 66.894 69.2463C66.894 69.7641 66.474 70.184 65.9563 70.184Z"
        fill="#AAB2C5" />
    <path
        d="M97.1212 47.2001C97.1212 47.9631 96.5018 48.5837 95.7375 48.5837C94.9732 48.5837 94.3477 47.9631 94.3477 47.2001C94.3477 46.437 94.967 45.8164 95.7375 45.8164C96.508 45.8164 97.1212 46.437 97.1212 47.2001Z"
        fill="#989FB0" />
    <path
        d="M101.926 47.2001C101.926 47.9631 101.307 48.5837 100.542 48.5837C99.7779 48.5837 99.1523 47.9631 99.1523 47.2001C99.1523 46.437 99.7717 45.8164 100.542 45.8164C101.313 45.8164 101.926 46.437 101.926 47.2001Z"
        fill="#989FB0" />
    <path
        d="M106.731 47.2001C106.731 47.9631 106.111 48.5837 105.347 48.5837C104.583 48.5837 103.957 47.9631 103.957 47.2001C103.957 46.437 104.576 45.8164 105.347 45.8164C106.117 45.8164 106.731 46.437 106.731 47.2001Z"
        fill="#989FB0" />
    <path
        d="M40.4453 164V152.727H42.0234L47.8203 160.93H47.9375V152.727H49.6406V164H48.0625L42.2734 155.812H42.1484V164H40.4453ZM55.875 164.164C53.3828 164.164 51.8594 162.5 51.8594 159.766V159.75C51.8594 157.023 53.3906 155.352 55.875 155.352C58.3516 155.352 59.8828 157.016 59.8828 159.75V159.766C59.8828 162.5 58.3594 164.164 55.875 164.164ZM55.875 162.75C57.3281 162.75 58.1562 161.641 58.1562 159.766V159.75C58.1562 157.867 57.3281 156.766 55.875 156.766C54.4141 156.766 53.5938 157.867 53.5938 159.75V159.766C53.5938 161.648 54.4141 162.75 55.875 162.75ZM66.4766 164V152.727H70.5469C73.8906 152.727 75.8516 154.789 75.8516 158.328V158.344C75.8516 161.922 73.9062 164 70.5469 164H66.4766ZM68.2266 162.492H70.3516C72.7109 162.492 74.0703 160.984 74.0703 158.367V158.352C74.0703 155.758 72.6875 154.234 70.3516 154.234H68.2266V162.492ZM80.3281 164.141C78.7109 164.141 77.5156 163.156 77.5156 161.617V161.602C77.5156 160.086 78.6562 159.203 80.6797 159.078L82.9766 158.945V158.195C82.9766 157.266 82.3906 156.75 81.2422 156.75C80.3047 156.75 79.6875 157.094 79.4844 157.695L79.4766 157.727H77.8438L77.8516 157.672C78.0547 156.281 79.3906 155.352 81.3203 155.352C83.4531 155.352 84.6562 156.414 84.6562 158.195V164H82.9766V162.797H82.8438C82.3438 163.656 81.4531 164.141 80.3281 164.141ZM79.2031 161.547C79.2031 162.328 79.8672 162.789 80.7812 162.789C82.0469 162.789 82.9766 161.961 82.9766 160.867V160.141L80.9062 160.273C79.7344 160.344 79.2031 160.766 79.2031 161.531V161.547ZM90.25 164.055C88.3828 164.055 87.6172 163.398 87.6172 161.766V156.852H86.2891V155.516H87.6172V153.375H89.3438V155.516H91.1641V156.852H89.3438V161.359C89.3438 162.273 89.6875 162.648 90.5234 162.648C90.7812 162.648 90.9297 162.641 91.1641 162.617V163.969C90.8906 164.016 90.5781 164.055 90.25 164.055ZM95.4688 164.141C93.8516 164.141 92.6562 163.156 92.6562 161.617V161.602C92.6562 160.086 93.7969 159.203 95.8203 159.078L98.1172 158.945V158.195C98.1172 157.266 97.5312 156.75 96.3828 156.75C95.4453 156.75 94.8281 157.094 94.625 157.695L94.6172 157.727H92.9844L92.9922 157.672C93.1953 156.281 94.5312 155.352 96.4609 155.352C98.5938 155.352 99.7969 156.414 99.7969 158.195V164H98.1172V162.797H97.9844C97.4844 163.656 96.5938 164.141 95.4688 164.141ZM94.3438 161.547C94.3438 162.328 95.0078 162.789 95.9219 162.789C97.1875 162.789 98.1172 161.961 98.1172 160.867V160.141L96.0469 160.273C94.875 160.344 94.3438 160.766 94.3438 161.531V161.547Z"
        fill="#121A26" />
    <defs>
        <filter id="filter0_d_8283_20121" x="0.949219" y="0" width="139.734" height="167.998"
            filterUnits="userSpaceOnUse" color-interpolation-filters="sRGB">
            <feFlood flood-opacity="0" result="BackgroundImageFix" />
            <feColorMatrix in="SourceAlpha" type="matrix" values="0 0 0 0 0 0 0 0 0 0 0 0 0 0 0 0 0 0 127 0"
                result="hardAlpha" />
            <feOffset dy="12" />
            <feGaussianBlur stdDeviation="12" />
            <feComposite in2="hardAlpha" operator="out" />
            <feColorMatrix type="matrix" values="0 0 0 0 0.396078 0 0 0 0 0.478431 0 0 0 0 0.576471 0 0 0 0.27 0" />
            <feBlend mode="normal" in2="BackgroundImageFix" result="effect1_dropShadow_8283_20121" />
            <feBlend mode="normal" in="SourceGraphic" in2="effect1_dropShadow_8283_20121" result="shape" />
        </filter>
        <linearGradient id="paint0_linear_8283_20121" x1="70.8165" y1="12" x2="71" y2="282"
            gradientUnits="userSpaceOnUse">
            <stop stop-color="#FDFEFF" />
            <stop offset="1" stop-color="#ECF0F5" />
        </linearGradient>
        <linearGradient id="paint1_linear_8283_20121" x1="86.4883" y1="25.9099" x2="116.45" y2="25.9099"
            gradientUnits="userSpaceOnUse">
            <stop stop-color="#D6DCE8" />
            <stop offset="1" stop-color="white" />
        </linearGradient>
        <linearGradient id="paint2_linear_8283_20121" x1="49.6995" y1="73.048" x2="95.1215" y2="73.048"
            gradientUnits="userSpaceOnUse">
            <stop stop-color="#D6DCE8" />
            <stop offset="1" stop-color="white" />
        </linearGradient>
        <linearGradient id="paint3_linear_8283_20121" x1="43.0652" y1="73.0449" x2="101.758" y2="73.0449"
            gradientUnits="userSpaceOnUse">
            <stop stop-color="#989FB0" />
            <stop offset="1" stop-color="#AAB2C5" />
        </linearGradient>
        <linearGradient id="paint4_linear_8283_20121" x1="90.1953" y1="96.8139" x2="102.166" y2="96.8139"
            gradientUnits="userSpaceOnUse">
            <stop stop-color="#989FB0" />
            <stop offset="1" stop-color="#AAB2C5" />
        </linearGradient>
        <linearGradient id="paint5_linear_8283_20121" x1="95.0042" y1="108.614" x2="120.952" y2="108.614"
            gradientUnits="userSpaceOnUse">
            <stop stop-color="#989FB0" />
            <stop offset="1" stop-color="#AAB2C5" />
        </linearGradient>
    </defs>
</svg>