<svg width="144" height="164" viewBox="0 0 144 164" fill="none" xmlns="http://www.w3.org/2000/svg">
    <path
        d="M134.347 77.7036C134.347 93.3284 127.965 107.413 117.732 117.536C107.719 127.549 93.855 133.601 78.5604 133.601C63.3758 133.601 49.5116 127.439 39.3885 117.536C29.1554 107.413 22.7734 93.3284 22.7734 77.7036C22.7734 46.7842 47.751 21.8066 78.5604 21.8066C109.37 21.8066 134.347 46.8943 134.347 77.7036Z"
        fill="#EAEEF9" />
    <path
        d="M129.511 41.0618C132.003 41.0618 134.023 39.042 134.023 36.5504C134.023 34.0589 132.003 32.0391 129.511 32.0391C127.02 32.0391 125 34.0589 125 36.5504C125 39.042 127.02 41.0618 129.511 41.0618Z"
        fill="#EAEEF9" />
    <path
        d="M136.112 23.4568C137.814 23.4568 139.193 22.0774 139.193 20.3759C139.193 18.6743 137.814 17.2949 136.112 17.2949C134.411 17.2949 133.031 18.6743 133.031 20.3759C133.031 22.0774 134.411 23.4568 136.112 23.4568Z"
        fill="#EAEEF9" />
    <path
        d="M24.538 40.9529C26.2395 40.9529 27.6189 39.5735 27.6189 37.872C27.6189 36.1704 26.2395 34.791 24.538 34.791C22.8364 34.791 21.457 36.1704 21.457 37.872C21.457 39.5735 22.8364 40.9529 24.538 40.9529Z"
        fill="#EAEEF9" />
    <path
        d="M5.72174 100.369C8.88177 100.369 11.4435 97.8076 11.4435 94.6475C11.4435 91.4875 8.88177 88.9258 5.72174 88.9258C2.56171 88.9258 0 91.4875 0 94.6475C0 97.8076 2.56171 100.369 5.72174 100.369Z"
        fill="#EAEEF9" />
    <g filter="url(#filter0_d_8183_3322)">
        <path
            d="M118.32 52.0765L119.201 122.938C119.201 125.359 117.22 127.229 114.799 127.229H45.6982C43.2775 127.229 41.2969 125.249 41.2969 122.938V31.8304C41.2969 29.4096 43.2775 27.5391 45.6982 27.5391H95.7634L118.32 52.0765Z"
            fill="url(#paint0_linear_8183_3322)" />
    </g>
    <path
        d="M77.2791 42.3941H52.9617C52.1915 42.3941 51.5312 41.7339 51.5312 40.9636C51.5312 40.1934 52.1915 39.5332 52.9617 39.5332H77.2791C78.0493 39.5332 78.7095 40.1934 78.7095 40.9636C78.7095 41.7339 78.0493 42.3941 77.2791 42.3941Z"
        fill="#D5DDEA" />
    <path
        d="M65.7256 50.3159H52.9617C52.1915 50.3159 51.5312 49.6557 51.5312 48.8855C51.5312 48.1153 52.1915 47.4551 52.9617 47.4551H65.6155C66.3858 47.4551 67.046 48.1153 67.046 48.8855C67.046 49.6557 66.3858 50.3159 65.7256 50.3159Z"
        fill="#D5DDEA" />
    <path d="M95.7617 27.5391V47.125C95.7617 49.8759 98.1825 52.0765 100.933 52.0765H118.319" fill="#D5DDEA" />
    <path
        d="M62.4616 42.1359L67.69 23.6943L89.1648 26.1679L81.6672 38.1861L87.4747 42.826L74.9718 70.1733L75.6684 49.0011L62.4616 42.1359Z"
        fill="#EAEEF9" />
    <path d="M67.0986 20.9999L62.9375 14.7363" stroke="#94A3B8" stroke-width="2.20067" stroke-linecap="round" />
    <path d="M78.1986 17.8663L78.6875 2" stroke="#94A3B8" stroke-width="2.20067" stroke-linecap="round" />
    <path d="M88.1428 21.1458L94.7852 6.72852" stroke="#94A3B8" stroke-width="2.20067" stroke-linecap="round" />
    <path
        d="M65.5464 100.348C65.0842 100.348 64.7145 100.163 64.3447 99.8862C63.6976 99.2391 63.6976 98.1298 64.3447 97.4827C68.597 93.3228 74.236 91.0117 80.2447 91.0117C86.2535 91.0117 91.8925 93.3228 96.1448 97.4827C96.7919 98.1298 96.7919 99.2391 96.1448 99.8862C95.4977 100.533 94.3884 100.533 93.7413 99.8862C90.1361 96.2809 85.3291 94.3396 80.2447 94.3396C75.1604 94.3396 70.3534 96.2809 66.7482 99.8862C66.3784 100.163 66.0087 100.348 65.5464 100.348Z"
        fill="#94A3B8" />
    <path
        d="M71.3703 75.5723L73.5889 73.3537C74.236 72.7066 74.236 71.5973 73.5889 70.9502C72.9418 70.3031 71.8325 70.3031 71.1854 70.9502L68.9668 73.1688L66.7482 70.9502C66.1011 70.3031 64.9918 70.3031 64.3447 70.9502C63.6976 71.5973 63.6976 72.7066 64.3447 73.3537L66.5633 75.5723L64.3447 77.7909C63.6976 78.438 63.6976 79.5473 64.3447 80.1944C64.7145 80.5641 65.0842 80.6566 65.5464 80.6566C66.0087 80.6566 66.3784 80.4717 66.7482 80.1944L68.9668 77.9758L71.1854 80.1944C71.5552 80.5641 71.925 80.6566 72.3872 80.6566C72.8494 80.6566 73.2191 80.4717 73.5889 80.1944C74.236 79.5473 74.236 78.438 73.5889 77.7909L71.3703 75.5723Z"
        fill="#94A3B8" />
    <path
        d="M93.8351 75.5723L96.0538 73.3537C96.7008 72.7066 96.7008 71.5973 96.0538 70.9502C95.4067 70.3031 94.2973 70.3031 93.6503 70.9502L91.4316 73.1688L89.213 70.9502C88.5659 70.3031 87.4566 70.3031 86.8095 70.9502C86.1624 71.5973 86.1624 72.7066 86.8095 73.3537L89.0281 75.5723L86.8095 77.7909C86.1624 78.438 86.1624 79.5473 86.8095 80.1944C87.1793 80.5641 87.5491 80.6566 88.0113 80.6566C88.4735 80.6566 88.8433 80.4717 89.213 80.1944L91.4316 77.9758L93.6503 80.1944C94.02 80.5641 94.3898 80.6566 94.852 80.6566C95.3142 80.6566 95.684 80.4717 96.0538 80.1944C96.7008 79.5473 96.7008 78.438 96.0538 77.7909L93.8351 75.5723Z"
        fill="#94A3B8" />
    <defs>
        <filter id="filter0_d_8183_3322" x="17.0895" y="15.4354" width="126.317" height="148.104"
            filterUnits="userSpaceOnUse" color-interpolation-filters="sRGB">
            <feFlood flood-opacity="0" result="BackgroundImageFix" />
            <feColorMatrix in="SourceAlpha" type="matrix" values="0 0 0 0 0 0 0 0 0 0 0 0 0 0 0 0 0 0 127 0"
                result="hardAlpha" />
            <feOffset dy="12.1037" />
            <feGaussianBlur stdDeviation="12.1037" />
            <feColorMatrix type="matrix" values="0 0 0 0 0.397708 0 0 0 0 0.47749 0 0 0 0 0.575 0 0 0 0.27 0" />
            <feBlend mode="normal" in2="BackgroundImageFix" result="effect1_dropShadow_8183_3322" />
            <feBlend mode="normal" in="SourceGraphic" in2="effect1_dropShadow_8183_3322" result="shape" />
        </filter>
        <linearGradient id="paint0_linear_8183_3322" x1="80.2233" y1="25.2331" x2="80.2233" y2="128.304"
            gradientUnits="userSpaceOnUse">
            <stop stop-color="#FDFEFF" />
            <stop offset="0.9964" stop-color="#ECF0F5" />
        </linearGradient>
    </defs>
</svg>