<svg width="24" height="24" viewBox="0 0 24 24" fill="none" xmlns="http://www.w3.org/2000/svg">
    <path
        d="M20.6948 17.3574C20.3139 17.0741 19.7756 17.1532 19.4923 17.534C19.3365 17.7434 19.1698 17.9488 18.9968 18.1446C18.6825 18.5001 18.7158 19.0432 19.0714 19.3576C19.2349 19.5022 19.438 19.5731 19.6403 19.5731C19.878 19.5731 20.1146 19.475 20.2845 19.2829C20.4894 19.0512 20.6868 18.8079 20.8713 18.5598C21.1546 18.1791 21.0756 17.6407 20.6948 17.3574Z"
        fill="#FACC15" />
    <path
        d="M22.1357 13.3265C21.6722 13.2255 21.2141 13.5197 21.1132 13.9834C21.0576 14.2385 20.9905 14.4941 20.9135 14.7431C20.7734 15.1966 21.0274 15.6778 21.4809 15.8179C21.5654 15.844 21.6508 15.8564 21.7349 15.8564C22.1018 15.8564 22.4416 15.6195 22.5557 15.2504C22.647 14.9549 22.7267 14.6516 22.7926 14.349C22.8935 13.8852 22.5994 13.4275 22.1357 13.3265Z"
        fill="#FACC15" />
    <path
        d="M16.5596 20.1111C16.3314 20.2385 16.0952 20.3575 15.8575 20.4649C15.4249 20.6602 15.2326 21.1692 15.4279 21.6018C15.5715 21.9196 15.8842 22.1077 16.2116 22.1077C16.3299 22.1077 16.4501 22.0831 16.5648 22.0313C16.8468 21.9039 17.1269 21.7628 17.3975 21.6118C17.8119 21.3804 17.9603 20.8569 17.7288 20.4425C17.4975 20.0281 16.974 19.8798 16.5596 20.1111Z"
        fill="#FACC15" />
    <path
        d="M11.1413 5.125V11.644L7.98997 14.7953C7.65438 15.1309 7.65438 15.675 7.98997 16.0106C8.15781 16.1785 8.37768 16.2623 8.59768 16.2623C8.81759 16.2623 9.03755 16.1784 9.20539 16.0106L12.6083 12.6077C12.7695 12.4465 12.86 12.2279 12.86 12V5.125C12.86 4.65037 12.4753 4.26562 12.0006 4.26562C11.526 4.26562 11.1413 4.65037 11.1413 5.125Z"
        fill="#FACC15" />
    <path
        d="M22.1406 2.84766C21.666 2.84766 21.2812 3.2324 21.2812 3.70703V6.09334C19.281 2.95628 15.7877 1 12 1C9.0618 1 6.29947 2.14421 4.2218 4.2218C2.14421 6.29947 1 9.0618 1 12C1 14.9382 2.14421 17.7005 4.2218 19.7782C6.29947 21.8558 9.0618 23 12 23C12.0073 23 12.0143 22.9991 12.0215 22.9989C12.0287 22.9991 12.0357 23 12.043 23C12.3527 23 12.6655 22.9869 12.9727 22.9612C13.4456 22.9216 13.797 22.5061 13.7574 22.0332C13.7177 21.5602 13.3028 21.2087 12.8293 21.2485C12.5696 21.2702 12.305 21.2812 12.043 21.2812C12.0357 21.2812 12.0287 21.2822 12.0215 21.2823C12.0143 21.2822 12.0073 21.2812 12 21.2812C6.88229 21.2812 2.71875 17.1177 2.71875 12C2.71875 6.88229 6.88229 2.71875 12 2.71875C15.2982 2.71875 18.3317 4.47673 19.9894 7.27344H17.6265C17.1518 7.27344 16.7671 7.65818 16.7671 8.13281C16.7671 8.60745 17.1518 8.99219 17.6265 8.99219H20.25C20.7734 8.99219 21.263 8.84511 21.6799 8.5903C21.7067 8.575 21.7325 8.55855 21.757 8.5408C22.505 8.04877 23 7.20241 23 6.24219V3.70703C23 3.2324 22.6153 2.84766 22.1406 2.84766Z"
        fill="#FACC15" />
</svg>