<svg width="24" height="24" viewBox="0 0 24 24" fill="none" xmlns="http://www.w3.org/2000/svg">
    <path
        d="M19.7782 4.22183C17.7153 2.15893 14.9174 1 12 1C9.08262 1 6.28473 2.15893 4.22183 4.22183C2.15893 6.28473 1 9.08262 1 12C1 14.9174 2.15893 17.7153 4.22183 19.7782C6.28473 21.8411 9.08262 23 12 23C14.9174 23 17.7153 21.8411 19.7782 19.7782C21.8411 17.7153 23 14.9174 23 12C23 9.08262 21.8411 6.28473 19.7782 4.22183ZM18.6704 18.6704C17.3505 19.9856 15.6706 20.8803 13.8426 21.2415C12.0146 21.6026 10.1206 21.414 8.39976 20.6994C6.67891 19.9849 5.20837 18.7764 4.17385 17.2267C3.13932 15.677 2.5872 13.8555 2.5872 11.9921C2.5872 10.1288 3.13932 8.30731 4.17385 6.75758C5.20837 5.20785 6.67891 3.99941 8.39976 3.28486C10.1206 2.57031 12.0146 2.38169 13.8426 2.74282C15.6706 3.10396 17.3505 3.99865 18.6704 5.31391C19.5493 6.18982 20.2467 7.23061 20.7226 8.37661C21.1984 9.52261 21.4434 10.7513 21.4434 11.9921C21.4434 13.233 21.1984 14.4617 20.7226 15.6077C20.2467 16.7537 19.5493 17.7945 18.6704 18.6704ZM15.3313 9.77654L13.1078 12L15.3313 14.2235C15.4776 14.3707 15.5597 14.5698 15.5597 14.7774C15.5597 14.9849 15.4776 15.1841 15.3313 15.3313C15.1841 15.4776 14.9849 15.5597 14.7774 15.5597C14.5698 15.5597 14.3707 15.4776 14.2235 15.3313L12 13.1078L9.77654 15.3313C9.62934 15.4776 9.43021 15.5597 9.22264 15.5597C9.01508 15.5597 8.81595 15.4776 8.66874 15.3313C8.52241 15.1841 8.44028 14.9849 8.44028 14.7774C8.44028 14.5698 8.52241 14.3707 8.66874 14.2235L10.8922 12L8.66874 9.77654C8.54003 9.62624 8.47277 9.43291 8.48041 9.23517C8.48805 9.03744 8.57002 8.84986 8.70994 8.70994C8.84987 8.57002 9.03744 8.48804 9.23517 8.48041C9.43291 8.47277 9.62624 8.54003 9.77654 8.66874L12 10.8922L14.2235 8.66874C14.3738 8.54003 14.5671 8.47277 14.7648 8.48041C14.9626 8.48804 15.1501 8.57002 15.2901 8.70994C15.43 8.84986 15.512 9.03744 15.5196 9.23517C15.5272 9.43291 15.46 9.62624 15.3313 9.77654Z"
        fill="#FF4747" />
    <path
        d="M19.7782 4.22183C17.7153 2.15893 14.9174 1 12 1C9.08262 1 6.28473 2.15893 4.22183 4.22183C2.15893 6.28473 1 9.08262 1 12C1 14.9174 2.15893 17.7153 4.22183 19.7782C6.28473 21.8411 9.08262 23 12 23C14.9174 23 17.7153 21.8411 19.7782 19.7782C21.8411 17.7153 23 14.9174 23 12C23 9.08262 21.8411 6.28473 19.7782 4.22183ZM18.6704 18.6704C17.3505 19.9856 15.6706 20.8803 13.8426 21.2415C12.0146 21.6026 10.1206 21.414 8.39976 20.6994C6.67891 19.9849 5.20837 18.7764 4.17385 17.2267C3.13932 15.677 2.5872 13.8555 2.5872 11.9921C2.5872 10.1288 3.13932 8.30731 4.17385 6.75758C5.20837 5.20785 6.67891 3.99941 8.39976 3.28486C10.1206 2.57031 12.0146 2.38169 13.8426 2.74282C15.6706 3.10396 17.3505 3.99865 18.6704 5.31391C19.5493 6.18982 20.2467 7.23061 20.7226 8.37661C21.1984 9.52261 21.4434 10.7513 21.4434 11.9921C21.4434 13.233 21.1984 14.4617 20.7226 15.6077C20.2467 16.7537 19.5493 17.7945 18.6704 18.6704ZM15.3313 9.77654L13.1078 12L15.3313 14.2235C15.4776 14.3707 15.5597 14.5698 15.5597 14.7774C15.5597 14.9849 15.4776 15.1841 15.3313 15.3313C15.1841 15.4776 14.9849 15.5597 14.7774 15.5597C14.5698 15.5597 14.3707 15.4776 14.2235 15.3313L12 13.1078L9.77654 15.3313C9.62934 15.4776 9.43021 15.5597 9.22264 15.5597C9.01508 15.5597 8.81595 15.4776 8.66874 15.3313C8.52241 15.1841 8.44028 14.9849 8.44028 14.7774C8.44028 14.5698 8.52241 14.3707 8.66874 14.2235L10.8922 12L8.66874 9.77654C8.54003 9.62624 8.47277 9.43291 8.48041 9.23517C8.48805 9.03744 8.57002 8.84986 8.70994 8.70994C8.84987 8.57002 9.03744 8.48804 9.23517 8.48041C9.43291 8.47277 9.62624 8.54003 9.77654 8.66874L12 10.8922L14.2235 8.66874C14.3738 8.54003 14.5671 8.47277 14.7648 8.48041C14.9626 8.48804 15.1501 8.57002 15.2901 8.70994C15.43 8.84986 15.512 9.03744 15.5196 9.23517C15.5272 9.43291 15.46 9.62624 15.3313 9.77654Z"
        fill="#FF4747" />
</svg>