<svg width="19" height="19" viewBox="0 0 19 19" fill="none" xmlns="http://www.w3.org/2000/svg">
<path d="M8.91436 15.9685C9.05668 16.1464 9.27217 16.25 9.50001 16.25C9.72784 16.25 9.94333 16.1464 10.0857 15.9685L13.0857 12.2185C13.2658 11.9934 13.3009 11.685 13.176 11.4251C13.0511 11.1653 12.7883 11 12.5 11H6.50001C6.2117 11 5.94892 11.1653 5.82403 11.4251C5.69914 11.685 5.73425 11.9934 5.91436 12.2185L8.91436 15.9685Z" fill="#94A3B8"/>
<path d="M10.0857 3.03148C9.94333 2.85357 9.72785 2.75 9.50001 2.75C9.27217 2.75 9.05668 2.85357 8.91436 3.03148L5.91436 6.78148C5.73425 7.00661 5.69914 7.31504 5.82403 7.57489C5.94892 7.83474 6.2117 8 6.50001 8H12.5C12.7883 8 13.0511 7.83474 13.176 7.57489C13.3009 7.31504 13.2658 7.00661 13.0857 6.78148L10.0857 3.03148Z" fill="#94A3B8"/>
</svg>
