<svg width="38" height="38" viewBox="0 0 38 38" fill="none" xmlns="http://www.w3.org/2000/svg">
<path d="M28.5153 13.5059C27.5314 13.5059 26.734 14.3033 26.734 15.2871C26.734 16.271 27.5314 17.0684 28.5153 17.0684C31.1593 17.0684 33.3098 19.2195 33.3098 21.8629V29.2854C33.3098 31.9293 31.1593 34.0799 28.5153 34.0799H9.48203C6.83806 34.0799 4.6875 31.9293 4.6875 29.2854V21.8629C4.6875 19.2189 6.83866 17.0684 9.48203 17.0684C10.4659 17.0684 11.2633 16.271 11.2633 15.2871C11.2633 14.3033 10.4659 13.5059 9.48203 13.5059C4.87394 13.5059 1.125 17.2548 1.125 21.8629V29.2854C1.125 33.8935 4.87394 37.6424 9.48203 37.6424H28.5159C33.124 37.6424 36.8729 33.8935 36.8729 29.2854V21.8629C36.8729 17.2548 33.1234 13.5059 28.5153 13.5059Z" fill="#94A3B8"/>
<path d="M12.0465 10.7137C12.8106 11.3324 13.9328 11.2154 14.5515 10.4507L17.2169 7.1607V25.5753C17.2169 26.5591 18.0143 27.3565 18.9981 27.3565C19.982 27.3565 20.7794 26.5591 20.7794 25.5753V7.1607L23.4441 10.4507C23.7962 10.8853 24.3104 11.1109 24.8293 11.1109C25.223 11.1109 25.6196 10.9809 25.9497 10.7137C26.7139 10.0944 26.8315 8.97282 26.2122 8.20867L20.3821 1.01064C20.3703 0.996386 20.356 0.985699 20.3435 0.972043C20.2907 0.910887 20.2337 0.853293 20.1725 0.799855C20.1494 0.779668 20.128 0.757699 20.1043 0.738699C20.0229 0.67398 19.9362 0.614605 19.8436 0.564137C19.8252 0.554043 19.8056 0.548105 19.7866 0.538605C19.7237 0.507137 19.6601 0.476262 19.593 0.452512C19.58 0.447762 19.5663 0.44598 19.5527 0.441824C19.5159 0.429949 19.4785 0.421637 19.4416 0.412137C19.3757 0.394918 19.3098 0.381262 19.2433 0.371762C19.2035 0.366418 19.165 0.362262 19.1252 0.359293C19.0563 0.354543 18.9886 0.354543 18.9203 0.357512C18.8835 0.359293 18.8473 0.358699 18.8105 0.362855C18.7101 0.373543 18.6104 0.390762 18.5136 0.418074C18.4922 0.424012 18.472 0.434105 18.4507 0.44123C18.3711 0.466762 18.2933 0.497637 18.2173 0.534449C18.1853 0.549887 18.1544 0.568293 18.1229 0.586105C18.0552 0.624105 17.9905 0.666855 17.9282 0.713762C17.9115 0.72623 17.8925 0.734543 17.8765 0.747605C17.8664 0.755324 17.8599 0.766012 17.8498 0.77373C17.778 0.834293 17.7109 0.900793 17.6485 0.97323C17.6384 0.985105 17.626 0.995199 17.6159 1.00707C17.6159 1.00886 17.6147 1.00945 17.6141 1.01064L11.784 8.20867C11.1648 8.97282 11.2823 10.0944 12.0465 10.7137Z" fill="#94A3B8"/>
</svg>
