<svg width="24" height="22" viewBox="0 0 24 22" fill="none" xmlns="http://www.w3.org/2000/svg">
    <path
        d="M23.5202 16.4872L15.112 1.92355C13.7386 -0.482328 10.2657 -0.482328 8.89725 1.92355L0.484103 16.4872C-0.88927 18.8931 0.820036 21.8819 3.59148 21.8819H20.3832C23.1546 21.8819 24.8936 18.8635 23.5202 16.4872Z"
        fill="white" />
    <path
        d="M23.5202 16.4872L15.112 1.92355C13.7386 -0.482328 10.2657 -0.482328 8.89725 1.92355L0.484103 16.4872C-0.88927 18.8931 0.820036 21.8819 3.59148 21.8819H20.3832C23.1546 21.8819 24.8936 18.8635 23.5202 16.4872ZM11.9997 18.651C11.2685 18.651 10.6609 18.0434 10.6609 17.3122C10.6609 16.5811 11.2685 15.9735 11.9997 15.9735C12.7308 15.9735 13.3385 16.5811 13.3088 17.3468C13.3434 18.0434 12.7012 18.651 11.9997 18.651ZM13.2199 9.99582C13.1606 11.0333 13.0964 12.0658 13.0371 13.1032C13.0075 13.4391 13.0075 13.7454 13.0075 14.0764C12.9779 14.6248 12.5481 15.0496 11.9997 15.0496C11.4513 15.0496 11.0265 14.6544 10.9919 14.1061C10.903 12.4906 10.8091 10.9048 10.7202 9.28937C10.6905 8.86452 10.6609 8.43472 10.6263 8.00986C10.6263 7.30836 11.0215 6.73035 11.6638 6.54757C12.306 6.39442 12.9433 6.70071 13.2199 7.30836C13.3138 7.52078 13.3434 7.73321 13.3434 7.98022C13.3138 8.65703 13.2496 9.32889 13.2199 9.99582Z"
        fill="#FACC15" />
</svg>