<svg width="148" height="149" viewBox="0 0 148 149" fill="none" xmlns="http://www.w3.org/2000/svg">
<rect y="0.5" width="148" height="148" rx="74" fill="#F2F4F7"/>
<path d="M22.967 47.2917C22.967 47.2917 16.9176 47.3122 16.9176 53.341C16.9176 47.3122 10.8682 47.2917 10.8682 47.2917C10.8682 47.2917 16.9176 47.271 16.9176 41.2422C16.9176 47.271 22.967 47.2917 22.967 47.2917Z" fill="white" stroke="#98A2B3" stroke-linecap="round" stroke-linejoin="round"/>
<path d="M141.237 95.9167C141.237 95.9167 135.187 95.9372 135.187 101.966C135.187 95.9372 129.138 95.9167 129.138 95.9167C129.138 95.9167 135.187 95.896 135.187 89.8672C135.187 95.896 141.237 95.9167 141.237 95.9167Z" fill="white" stroke="#98A2B3" stroke-linecap="round" stroke-linejoin="round"/>
<rect x="57.6338" y="29.1484" width="65.9744" height="83.7857" rx="3.02661" transform="rotate(15.9553 57.6338 29.1484)" fill="#EAECF0" stroke="#98A2B3" stroke-miterlimit="10"/>
<path d="M115.52 43.1801L96.4991 109.708C94.8319 115.54 88.7576 118.913 82.9264 117.246L37.2955 104.2C33.2906 103.055 30.9755 98.8858 32.1205 94.8809L52.0867 25.0446C52.5502 23.4236 54.2385 22.486 55.8595 22.9494L113.424 39.4073C115.045 39.8707 115.983 41.5591 115.52 43.1801Z" fill="white" stroke="#98A2B3" stroke-miterlimit="10"/>
<path d="M82.9267 117.248L32.9597 102.939C29.5123 101.954 27.5145 98.3673 28.5002 94.9199C29.3747 91.861 32.3196 89.9419 35.3805 90.2536L35.589 90.2736L86.7762 95.7356C81.6761 95.3408 76.8436 98.5612 75.382 103.674C73.7148 109.505 77.0881 115.579 82.9267 117.248Z" fill="#D0D5DD" stroke="#98A2B3" stroke-miterlimit="10"/>
<path d="M63.6993 37.9044L66.801 43.4464L61.062 46.6583C60.4768 46.9858 60.268 47.7258 60.5955 48.311C60.923 48.8962 61.663 49.1051 62.2481 48.7775L69.0467 44.9725C69.6319 44.645 69.8408 43.9051 69.5133 43.3199L65.8185 36.7182C65.491 36.133 64.751 35.9241 64.1658 36.2517C63.5806 36.5792 63.3717 37.3192 63.6993 37.9044Z" fill="#98A2B3"/>
<path d="M96.2002 45.2959L89.5986 48.9907C89.3195 49.1469 89.1099 49.4127 89.023 49.7204C88.9362 50.0281 88.9758 50.3643 89.132 50.6434L92.937 57.4419C93.2645 58.0271 94.0045 58.236 94.5897 57.9085C95.1749 57.5809 95.3838 56.841 95.0563 56.2558L91.8443 50.5169L97.3863 47.4152C97.9716 47.0877 98.1804 46.3477 97.8529 45.7626C97.5254 45.1774 96.7854 44.9684 96.2002 45.2959Z" fill="#98A2B3"/>
<path d="M66.7326 59.7309L83.4028 64.4373C84.0482 64.6195 84.7191 64.244 84.9013 63.5986C85.0835 62.9532 84.708 62.2823 84.0626 62.1001L67.3924 57.3937C66.747 57.2115 66.0761 57.587 65.8939 58.2324C65.7117 58.8778 66.0872 59.5487 66.7326 59.7309Z" fill="#98A2B3"/>
<rect x="74.3535" y="77.6133" width="3.65196" height="10.0615" rx="1.51331" transform="rotate(15.9553 74.3535 77.6133)" fill="#EAECF0"/>
<rect x="86.1318" y="78.4961" width="3.65196" height="12.4496" rx="1.51331" transform="rotate(15.9553 86.1318 78.4961)" fill="#EAECF0"/>
<rect x="81.3799" y="74.0781" width="3.65196" height="15.3903" rx="1.51331" transform="rotate(15.9553 81.3799 74.0781)" fill="#EAECF0"/>
<rect x="90.9668" y="84.9219" width="3.65196" height="7.60192" rx="1.51331" transform="rotate(15.9553 90.9668 84.9219)" fill="#EAECF0"/>
<circle cx="57.156" cy="75.7522" r="10.3301" transform="rotate(15.9553 57.156 75.7522)" fill="white" stroke="#98A2B3" stroke-miterlimit="10"/>
<path fill-rule="evenodd" clip-rule="evenodd" d="M48.6008 81.5412C49.7443 78.5953 52.8173 76.8602 55.9218 77.3897C54.4123 76.6036 53.6117 74.8403 54.0978 73.1403C54.6532 71.1976 56.6783 70.073 58.621 70.6284C60.5636 71.1838 61.6882 73.2089 61.1328 75.1516C60.6468 76.8517 59.0352 77.9252 57.3383 77.7946C60.2534 78.9861 61.9448 82.0832 61.3586 85.1881C59.2191 86.1422 56.745 86.3777 54.3165 85.6834C51.8882 84.9891 49.9126 83.4817 48.6008 81.5412Z" fill="#98A2B3"/>
<path d="M55.9218 77.3897L55.8378 77.8825C56.0805 77.9239 56.3172 77.7825 56.3957 77.5491C56.4743 77.3157 56.3712 77.0599 56.1528 76.9462L55.9218 77.3897ZM48.6008 81.5412L48.1347 81.3602C48.0754 81.5131 48.0948 81.6853 48.1866 81.8212L48.6008 81.5412ZM57.3383 77.7946L57.3766 77.2961C57.1311 77.2772 56.9084 77.4398 56.8517 77.6794C56.795 77.919 56.9212 78.1643 57.1491 78.2574L57.3383 77.7946ZM61.3586 85.1881L61.5622 85.6447C61.712 85.578 61.8195 85.442 61.8499 85.2809L61.3586 85.1881ZM56.0059 76.8968C52.6675 76.3274 49.3643 78.1925 48.1347 81.3602L49.0669 81.7221C50.1243 78.9982 52.967 77.3929 55.8378 77.8825L56.0059 76.8968ZM53.617 73.0028C53.0644 74.9358 53.9749 76.9395 55.6909 77.8331L56.1528 76.9462C54.8497 76.2676 54.159 74.7449 54.5785 73.2777L53.617 73.0028ZM58.7584 70.1476C56.5502 69.5163 54.2484 70.7946 53.617 73.0028L54.5785 73.2777C55.058 71.6005 56.8063 70.6296 58.4835 71.1091L58.7584 70.1476ZM61.6136 75.289C62.2449 73.0808 60.9666 70.779 58.7584 70.1476L58.4835 71.1091C60.1607 71.5886 61.1316 73.337 60.6521 75.0141L61.6136 75.289ZM57.2999 78.2931C59.2289 78.4416 61.0609 77.222 61.6136 75.289L60.6521 75.0141C60.2326 76.4813 58.8414 77.4088 57.3766 77.2961L57.2999 78.2931ZM61.8499 85.2809C62.4803 81.9421 60.6621 78.613 57.5274 77.3318L57.1491 78.2574C59.8447 79.3592 61.4094 82.2243 60.8673 85.0953L61.8499 85.2809ZM61.155 84.7314C59.1188 85.6395 56.7653 85.8634 54.4539 85.2026L54.179 86.1641C56.7247 86.8919 59.3195 86.6449 61.5622 85.6447L61.155 84.7314ZM54.4539 85.2026C52.1428 84.5419 50.2635 83.1079 49.0151 81.2611L48.1866 81.8212C49.5617 83.8554 51.6336 85.4364 54.179 86.1641L54.4539 85.2026Z" fill="#98A2B3"/>
<path d="M108.865 52.6881L105.64 47.2403L100.022 50.1599L103.876 36.6797L112.719 39.2079L108.865 52.6881Z" fill="#D0D5DD" stroke="#98A2B3" stroke-linecap="round" stroke-linejoin="round"/>
</svg>
